<?xml version="1.0" encoding="utf-8"?>
<!-- Generator: Adobe Illustrator 22.1.0, SVG Export Plug-In . SVG Version: 6.00 Build 0)  -->
<svg version="1.1" id="Layer_1" xmlns="http://www.w3.org/2000/svg" xmlns:xlink="http://www.w3.org/1999/xlink" x="0px" y="0px"
	 viewBox="0 0 300 300" style="enable-background:new 0 0 300 300;" xml:space="preserve">
<style type="text/css">
	.st0{fill:#1E1E1E;}
	.st1{fill:#597D38;}
	.st2{fill:#414141;}
	.st3{fill:#3E3E3D;}
	.st4{fill:#686969;}
	.st5{fill:#717171;}
	.st6{fill:#505151;}
	.st7{fill:#545454;}
	.st8{fill:#CF9178;}
	.st9{fill:#5395C9;}
	.st10{fill:#C7CAC8;}
	.st11{fill:#C5896E;}
	.st12{fill:#90C5D6;}
	.st13{fill:#5593C2;}
	.st14{fill:#D0CEC9;}
	.st15{fill:#93CBE3;}
	.st16{fill:#8FC5DD;}
	.st17{fill:#BE8873;}
	.st18{fill:#5197C7;}
	.st19{fill:#5298CE;}
	.st20{fill:#5497CF;}
	.st21{fill:#90C8E0;}
	.st22{fill:#C2C5C2;}
	.st23{fill:#C2C5C4;}
	.st24{fill:#BF876F;}
	.st25{fill:#95CEE7;}
	.st26{fill:#91C9E4;}
	.st27{fill:#C2886F;}
	.st28{fill:#C7CBCC;}
	.st29{fill:#91C9E3;}
	.st30{fill:#C7C8C5;}
	.st31{fill:#94CEE8;}
	.st32{fill:#CDCCC6;}
	.st33{fill:#C48A70;}
	.st34{fill:#D1CEC5;}
	.st35{fill:#5093C7;}
	.st36{fill:#C48A72;}
	.st37{fill:#C88C73;}
	.st38{fill:#93D4F3;}
	.st39{fill:#91CBE6;}
	.st40{fill:#5091C6;}
	.st41{fill:#B78571;}
	.st42{fill:#C98D75;}
	.st43{fill:#96D3ED;}
	.st44{fill:#BA8470;}
	.st45{fill:#C0866C;}
	.st46{fill:#BF8871;}
	.st47{fill:#C98E75;}
	.st48{fill:#C48B71;}
	.st49{fill:#CED0D1;}
	.st50{fill:#C48769;}
	.st51{fill:#CFCFCE;}
	.st52{fill:#5199CF;}
	.st53{fill:#5798C9;}
	.st54{fill:#94C6D5;}
	.st55{fill:#C9D0D2;}
	.st56{fill:#BC866E;}
	.st57{fill:#CCCCBD;}
	.st58{fill:#4E89BF;}
	.st59{fill:#C88D74;}
	.st60{fill:#9AD2E6;}
	.st61{fill:#C88D73;}
	.st62{fill:#CB8B6F;}
	.st63{fill:#C68A6F;}
	.st64{fill:#C0D1D4;}
	.st65{fill:#737777;}
	.st66{fill:#B1D4D4;}
	.st67{fill:#D0D2D2;}
	.st68{fill:#757977;}
	.st69{fill:#D2D1C6;}
	.st70{fill:#CB8D73;}
	.st71{fill:#C18973;}
	.st72{fill:#787A76;}
	.st73{fill:#4F91C8;}
	.st74{fill:#737878;}
	.st75{fill:#AF8270;}
	.st76{fill:#5190C3;}
	.st77{fill:#508EBF;}
	.st78{fill:#BB8874;}
	.st79{fill:#C28B72;}
	.st80{fill:#747778;}
	.st81{fill:#BE8971;}
	.st82{fill:#BA8771;}
	.st83{fill:#C99078;}
	.st84{fill:#BA8A77;}
	.st85{fill:#508DBD;}
	.st86{fill:#C4886B;}
	.st87{fill:#CC8D70;}
	.st88{fill:#CD8D72;}
	.st89{fill:#CECDC8;}
	.st90{fill:#CECECB;}
	.st91{fill:#777974;}
	.st92{fill:#C9CDCE;}
	.st93{fill:#C3C2C1;}
	.st94{fill:#7A796E;}
	.st95{fill:#C18873;}
	.st96{fill:#CE9176;}
	.st97{fill:#707573;}
	.st98{fill:#C08970;}
	.st99{fill:#CACAC7;}
	.st100{fill:#5290BE;}
	.st101{fill:#B6836E;}
	.st102{fill:#BF8972;}
	.st103{fill:#C58667;}
	.st104{fill:#C68C74;}
	.st105{fill:#C1BAAC;}
	.st106{fill:#9D3522;}
	.st107{fill:#777874;}
	.st108{fill:#CE743A;}
	.st109{fill:#C4622A;}
	.st110{fill:#A05E26;}
	.st111{fill:#CE925B;}
	.st112{fill:#C59076;}
	.st113{fill:#CA8B6E;}
	.st114{fill:#1E1E3A;}
	.st115{fill:#AD9178;}
	.st116{fill:#BA7E63;}
	.st117{fill:#2E2F7D;}
	.st118{fill:#BA866E;}
	.st119{fill:#817B74;}
	.st120{fill:#7C8837;}
	.st121{fill:#C28F77;}
	.st122{fill:#BF8872;}
	.st123{fill:#B48166;}
	.st124{fill:#CD9178;}
	.st125{fill:#589CD2;}
	.st126{fill:#6F7776;}
	.st127{fill:#27235B;}
	.st128{fill:#B0852D;}
	.st129{fill:#A1C8D4;}
	.st130{fill:#C98A6D;}
	.st131{fill:#2E2E7A;}
	.st132{fill:#CA8B61;}
	.st133{fill:#C48A71;}
	.st134{fill:#C98C72;}
	.st135{fill:#677075;}
	.st136{fill:#2084B2;}
	.st137{fill:#A57A69;}
	.st138{fill:#B58A78;}
	.st139{fill:#CD9169;}
	.st140{fill:#CB9178;}
	.st141{fill:#D0C8BB;}
	.st142{fill:#2F53A4;}
	.st143{fill:#1E3348;}
	.st144{fill:#6F7575;}
	.st145{fill:#AD806D;}
	.st146{fill:#4F8AB8;}
	.st147{fill:#3762AE;}
	.st148{fill:#205DA1;}
	.st149{fill:#7B7B6F;}
	.st150{fill:#599BCF;}
	.st151{fill:#1F4A5C;}
	.st152{fill:#C7886E;}
	.st153{fill:#737776;}
	.st154{fill:#717777;}
	.st155{fill:#D3CFBB;}
	.st156{fill:#CE8F58;}
	.st157{fill:#569BC7;}
	.st158{fill:#CB8B55;}
	.st159{fill:#B6BFC2;}
	.st160{fill:#CB7138;}
	.st161{fill:#8CC5D7;}
	.st162{fill:#CD7339;}
	.st163{fill:#404E22;}
	.st164{fill:#6E7776;}
	.st165{fill:#C3612A;}
	.st166{fill:#BCC2BB;}
	.st167{fill:#AB9078;}
	.st168{fill:#225A9E;}
	.st169{fill:#C9BEB0;}
	.st170{fill:#CFC6B8;}
	.st171{fill:#528EB8;}
	.st172{fill:#7C7B6F;}
	.st173{fill:#CE8348;}
	.st174{fill:#B9805E;}
	.st175{fill:#1E1F3A;}
	.st176{fill:#AE9178;}
	.st177{fill:#4E8ABD;}
	.st178{fill:#AB8174;}
	.st179{fill:#3D8CCB;}
	.st180{fill:#6D736F;}
	.st181{fill:#6F7675;}
	.st182{fill:#1E1E39;}
	.st183{fill:#6F7373;}
	.st184{fill:#5EA1C9;}
	.st185{fill:#9F5C26;}
	.st186{fill:#B2D4D4;}
	.st187{fill:#ACCAD4;}
	.st188{fill:#2D317F;}
	.st189{fill:#9D3622;}
	.st190{fill:#C5632B;}
	.st191{fill:#2E2F7E;}
	.st192{fill:#CD916A;}
	.st193{fill:#77776D;}
	.st194{fill:#313A96;}
	.st195{fill:#C1C4C7;}
	.st196{fill:#B1862D;}
	.st197{fill:#5093CB;}
	.st198{fill:#AA8F78;}
	.st199{fill:#5CA0C8;}
	.st200{fill:#404E24;}
	.st201{fill:#AF4B26;}
	.st202{fill:#CE8349;}
	.st203{fill:#B7846F;}
	.st204{fill:#BB8671;}
	.st205{fill:#BE846A;}
	.st206{fill:#CA8963;}
	.st207{fill:#C16632;}
	.st208{fill:#C57C52;}
	.st209{fill:#CE8249;}
	.st210{fill:#CE8A51;}
	.st211{fill:#C68F76;}
	.st212{fill:#CA6E35;}
	.st213{fill:#273D89;}
	.st214{fill:#BC7854;}
	.st215{fill:#B95628;}
	.st216{fill:#BC8B74;}
	.st217{fill:#A18072;}
	.st218{fill:#A54424;}
	.st219{fill:#C07B5C;}
	.st220{fill:#9E7F74;}
	.st221{fill:#AD8373;}
	.st222{fill:#2C4292;}
	.st223{fill:#27488D;}
	.st224{fill:#234F92;}
	.st225{fill:#2C3688;}
	.st226{fill:#BB8B6F;}
	.st227{fill:#C48E78;}
	.st228{fill:#BB8772;}
	.st229{fill:#2D2C74;}
	.st230{fill:#555555;}
	.st231{fill:#525353;}
	.st232{fill:#565656;}
	.st233{fill:#535353;}
	.st234{fill:#585959;}
	.st235{fill:#565757;}
	.st236{fill:#545554;}
	.st237{fill:#5A5A5A;}
	.st238{fill:#5A5B5B;}
	.st239{fill:#575757;}
	.st240{fill:#515151;}
	.st241{fill:#242A2F;}
	.st242{fill:#212328;}
	.st243{fill:#392721;}
	.st244{fill:#2E2422;}
	.st245{fill:#4C332A;}
	.st246{fill:#402B24;}
	.st247{fill:#29271F;}
	.st248{fill:#232827;}
	.st249{fill:#3055A6;}
	.st250{fill:#1E2028;}
	.st251{fill:#2B343A;}
	.st252{fill:#232523;}
	.st253{fill:#282D2B;}
	.st254{fill:#2A2626;}
	.st255{fill:#AE4A26;}
	.st256{fill:#212123;}
	.st257{fill:#2E3082;}
	.st258{fill:#222425;}
	.st259{fill:#252D37;}
	.st260{fill:#2B221F;}
	.st261{fill:#322721;}
	.st262{fill:#2B2427;}
	.st263{fill:#292125;}
	.st264{fill:#3F2C29;}
	.st265{fill:#48352E;}
	.st266{fill:#2B292B;}
	.st267{fill:#BA5B2A;}
	.st268{fill:#3A2822;}
	.st269{fill:#3F2A22;}
	.st270{fill:#432A22;}
	.st271{fill:#2A1F1E;}
	.st272{fill:#362927;}
	.st273{fill:#34261E;}
	.st274{fill:#272760;}
	.st275{fill:#A2C9D4;}
	.st276{fill:#272528;}
	.st277{fill:#312021;}
	.st278{fill:#CD8D5E;}
	.st279{fill:#322523;}
	.st280{fill:#C96F35;}
	.st281{fill:#35211D;}
	.st282{fill:#AF9178;}
	.st283{fill:#20213B;}
	.st284{fill:#242424;}
	.st285{fill:#222221;}
	.st286{fill:#201F1F;}
	.st287{fill:#232323;}
	.st288{fill:#212121;}
</style>
<g>
	<path class="st0" d="M6.2,307.5c-12.8,0-25.6,0-38.4,0c-1.6-1.7-1.1-3.9-1.1-5.9c0-48.9,0.6-97.9-0.2-146.8
		C-34.3,105.2-33.6,55.6-34,6c0-2-0.5-4.2,1.1-5.9c196.6,0,393.2,0,589.9-0.1c2.7,0,3.3,0.6,3.3,3.3c-0.1,100.3-0.1,200.6,0,300.9
		c0,2.7-0.6,3.3-3.3,3.3c-183.1-0.1-366.2-0.1-549.3-0.1c-1.2-1.6-0.7-3.5-0.7-5.3c0-49.7,0.6-99.3-0.2-149
		C6,112.7,6.8,72.1,6.2,39.4c0,29.4-0.6,66.8,0.1,104.1c1.1,52.9,0.1,105.8,0.6,158.7C6.9,304,7.4,305.9,6.2,307.5z"/>
	<path class="st0" d="M-101.8,307.5c-2.9,0-5.8,0-8.7,0c-0.6-1.1,0.2-2.6-0.9-3.5c0.9,1.2,0.8,2.4-0.5,3.5c-2.9,0-5.8,0-8.7,0
		c-0.4-1.3,0.5-3-1-3.8c1.4,1.3,1.3,2.7-0.5,3.8c-7.4,0-14.7-0.1-22.1,0c-1.5,0-2.2-0.2-1.8-1.8c0.1-0.5,0-1,0-1.4
		c0-100.3,0-200.7-0.1-301c0-2.8,0.7-3.3,3.4-3.3c13.9,0.1,27.8,0.1,41.7,0.1c1.6,1.3,1.5,3.2,1.5,5c0.4,9.2-0.7,18.3-0.7,27.5
		c-0.1,89,0,178-0.1,267.1C-100.3,302.3-99.5,305.2-101.8,307.5z"/>
	<path class="st0" d="M-72.8,0.1c12.8,0,25.6,0,38.4,0c1.2,1.6,0.7,3.5,0.7,5.3c0,45.5,0,91.1,0,136.6c0,1.8-0.3,3.6,0.4,5.4
		c0.5,1.5,0.3,3.1,0.3,4.7c0,50.1,0,100.1,0,150.2c0,1.8,0.5,3.6-0.7,5.3c-13.1,0-26.1,0-39.2,0c-1.7-1.9-1.1-4.1-1.1-6.2
		c0-69.3,0-138.7,0-208c0-29.2,0-58.5,0-87.7C-73.9,3.7-74.4,1.7-72.8,0.1z"/>
	<path class="st0" d="M-97.5,0.1c7.7,0,15.5,0,23.2,0c1,1.3,0.7,2.8,0.7,4.2c0,99.7,0,199.4,0,299.1c0,1.4,0.3,2.9-0.7,4.2
		c-8,0-16,0-23.9,0c-1.2-1-1.5-2.4-1.5-3.9c0-1.7,0-3.4,0-5.1c0-89,0-178,0-267.1c0-9.2,1-18.3,0.7-27.5
		C-99.1,2.5-98.7,1.1-97.5,0.1z"/>
	<path class="st1" d="M-97.5,0.1c-1.5,102.5-0.4,205-0.7,307.4c-1.2,0-2.4,0-3.6,0c0.4-102.5-0.8-205,0.7-307.4
		C-99.9,0.1-98.7,0.1-97.5,0.1z"/>
	<ellipse class="st2" cx="-73.6" cy="153.8" rx="1" ry="217.4"/>
	<path class="st3" d="M6.2,307.5c0.5-94.5-1.1-189-0.3-283.6c1.5,1.2,1,2.8,1,4.2c0,38.3-0.6,76.6,0.2,114.9
		c1.1,54.8,0.1,109.7,0.6,164.5C7.2,307.5,6.7,307.5,6.2,307.5z"/>
	<path class="st4" d="M-33.7,307.5c0-53.4,0-106.8,0-160.2c-0.6-1.1-0.3-2.4-0.3-3.6c0-46.7,0-93.4,0-140.2c0-1.2-0.3-2.4,0.3-3.5
		c0.2,0,0.5,0,0.7,0c0,47.6-0.7,95.2,0.1,142.7c0.9,54.4,0.1,108.9,0.6,163.3c0,0.5,0,1,0,1.4C-32.7,307.5-33.2,307.5-33.7,307.5z"
		/>
	<path class="st5" d="M-33.7,0.1c0,49.1,0,98.2,0,147.3c-1.3-1.3-0.7-3-0.7-4.5c0-47.6,0-95.2,0-142.8C-34.2,0.1-33.9,0.1-33.7,0.1z
		"/>
	<path class="st6" d="M-112,307.5c1.1-3.4-1.1-3.9-4.2-3.6c1.8-2,3.4-1.6,4.8-0.7c1.7,1.1,1.7,2.7,0.9,4.4
		C-111,307.5-111.5,307.5-112,307.5z"/>
	<path class="st7" d="M-122.1,307.5c2-4.1-1.5-3.4-3.9-3.9c1.7-1.5,3.3-1.5,4.8-0.5c1.7,1.2,1.5,2.8,0.6,4.4
		C-121.2,307.5-121.7,307.5-122.1,307.5z"/>
	<path class="st2" d="M46.3,270.6c0-74,0-147.9,0-221.9c0.2,0,0.5,0,0.7,0c0,74,0,147.9,0,221.9C46.8,270.6,46.5,270.6,46.3,270.6z"
		/>
	<ellipse class="st8" cx="448.2" cy="269.8" rx="98.8" ry="0.5"/>
	<path class="st9" d="M125.6,256.3c-0.3,3.8-2.2,6-6.6,5.8c1.4,1.8,3,0.9,4.3,1.3c1.2,0.3,2.4,0.7,2.4,2.2c0.1,1.3-0.8,2.1-1.8,2.4
		c-2,0.6-4,0.9-5.9-0.3c-2.1-1.2-0.4-2.7-0.2-4c0.1-0.5-0.1-1,0-1.4C118.4,255.5,118.5,255.5,125.6,256.3z"/>
	<path class="st10" d="M173,187c-0.9,0.5-2.2-0.4-3.1,0.9c1.3,1.1,2.8,0.4,4.1,0.7c1.1,0.3,2.1,0.8,2.3,2c0.1,1.2-0.5,2.1-1.6,2.5
		c-2.1,0.8-4.2,0.9-6.2-0.3c-0.6-0.4-1.6-0.9-1.1-1.6c1.6-2.2,0.8-4.5,0.6-6.8c-0.1-2.2,1.6-2.8,3.3-3.1c1.4-0.2,2.9,0,4.6,0
		c-0.1,1.5,0,2.8-1.2,3.8c-0.4,0-0.9,0-1.3-0.1c-0.3,0-0.9-0.7-0.7,0.4C172.9,185.9,173.2,186.4,173,187z"/>
	<path class="st11" d="M517.7,256.2c-0.6,4.1-2.2,6.7-7,5.8c1.6,1.7,3.2,1.1,4.6,1.3c1.1,0.2,2.2,0.6,2.5,1.8
		c0.4,1.5-0.9,2.3-1.8,2.8c-1.6,0.9-3.5,0.8-5.2,0c-1.8-0.8-1.3-2.2-0.8-3.7c0.2-0.4-0.1-0.9-0.1-1.4
		C510.1,255.8,510.1,255.7,517.7,256.2z"/>
	<path class="st12" d="M72.9,4.5c1.1-0.2,1.6,0.2,1.5,1.3c0,1.9,0.2,3.9-0.1,5.8c-0.3,1.7,1.5,4.4-1.2,4.9c-2.7,0.5-6.6,1.7-6.8-3.4
		c-0.1-3.2,1.7-4.8,5.8-5.1C73.1,6.9,72,5.5,72.9,4.5z"/>
	<path class="st13" d="M113.5,103.9c1.3-0.1,1.3,0.8,1.3,1.6c0,2.3,0,4.6,0,6.9c0,1.9,0.8,4-3,3.6c-2.6-0.3-4.5,0-4.7-3.1
		c-0.3-3.6,1-5.3,4.3-5.5c0.5,0,1-0.1,1.4-0.1C113.7,106.3,112.6,104.9,113.5,103.9z"/>
	<path class="st13" d="M103.3,53.8c1.3-0.1,1.3,0.8,1.3,1.6c0,2.3,0,4.6,0,6.9c0,1.9,0.8,4-3,3.6c-2.6-0.3-4.5,0-4.7-3.1
		c-0.3-3.6,1-5.3,4.3-5.5c0.5,0,1-0.1,1.4-0.1C103.5,56.2,102.5,54.8,103.3,53.8z"/>
	<path class="st14" d="M219.4,178.6c1.7-0.1,3.4-0.5,4.9,0.3c1,0.5,2.1,1.8,1.5,2.5c-2,2.6,2.5,5.9-1.2,8.1c-1.7,1-3.5,0.6-5.2,0.5
		C218.2,186.1,218.2,182.3,219.4,178.6z"/>
	<path class="st15" d="M158.4,256.7c2.2-1,4.5-1.5,6.1,0.2c1.9,2,1.5,5.1,0.6,7.1c-0.6,1.3-3.8,0.7-5.8,0.6c-1.2-0.1-1.5-1-1.5-2.1
		c0-2.1,1.7-2.3,3.1-2.9c0.8-0.3,2.6,0.8,2.5-1c-0.1-1.6-1.8-1.1-2.9-1.2C159.8,257.4,159,257.8,158.4,256.7z"/>
	<path class="st15" d="M158.5,157.8c2.1-1.3,4.3-1.9,6-0.3c1.9,1.9,1.4,4.8,0.8,6.8c-0.6,1.9-3.4,0.8-5.2,1.1
		c-1.2,0.2-2.1-0.3-2.3-1.6c-0.3-1.8,0.9-2.4,2.3-3.2c1.1-0.6,3.3,0.6,3.2-1.1c-0.1-2.2-2.5-1-3.8-1.4
		C159.2,158.1,158.9,157.9,158.5,157.8z"/>
	<path class="st16" d="M162.8,60.6c-0.9-3.3-3.4-0.8-5.2-1.6c1.4-2.4,3.6-1.8,5.4-1.6c1.9,0.3,2,2,2,3.6c0.1,5.3,0.1,5.2-5.2,5
		c-1.6-0.1-2.6-0.8-2.7-2.1c-0.1-1,0.4-2.3,1.9-2.5C160.3,61.3,161.5,60.9,162.8,60.6z"/>
	<path class="st15" d="M117.9,33.9c2.2-1.3,4.5-2.2,6.2-0.2c1.7,2,1.4,5,0.5,6.8c-0.7,1.4-3.7,0.9-5.7,0.8c-1.2-0.1-1.6-0.9-1.7-1.9
		c-0.1-1.9,1.3-2.3,2.6-3c1-0.5,3,0.7,2.9-1c-0.1-2.1-2.2-1.2-3.5-1.4C118.8,34.1,118.4,34,117.9,33.9z"/>
	<path class="st17" d="M265.8,163.6c-1.5,2.2-3.7,2.3-5.8,1.6c-2.1-0.7-1.2-2.9-1.3-4.5c-0.1-2.2,0-4.3,0-6.5c0-0.5,0.2-1,0.8-1
		c0.3,0,0.8,0.4,0.8,0.6c-0.6,3.6,1.8,3.1,4,3.1c0.5,0,1,0.6,1.4,1C266.4,159.7,266.3,161.7,265.8,163.6z"/>
	<path class="st18" d="M17,10.3c0.9-2.5,3.1-2.2,5.1-2.4c0.9-1-0.1-2.4,0.7-3.4c0.8-0.1,1.4,0.1,1.4,1.1c0,3.2,0,6.5,0,9.7
		c0,0.6-0.3,1.6-0.7,1.2c-2-1.6-5.3,2.5-6.5-1.6C16.6,13.4,16.5,11.8,17,10.3z"/>
	<path class="st19" d="M107.6,208.7c0.3-1.4,1.1-2.8,2.4-2.6c3.1,0.5,3.5-1.5,3.7-3.9c0.4,0.1,0.8,0.1,1.2,0.2c0,3.9,0,7.8,0,11.7
		c0,0.5-0.6,0.6-1.1,0.3c-1.8-1.3-5.3,2.7-6.1-1.9C107.2,211.3,107.2,210,107.6,208.7z"/>
	<path class="st20" d="M64.4,28.8c0,4,0,7.7,0,11.3c0,1.2-0.5,1.1-1.6,1C60.6,40.9,58,42.4,57,39c-0.9-3.4,0.5-6,4.1-6.2
		C64.1,32.6,61.9,29.9,64.4,28.8z"/>
	<path class="st18" d="M73.6,277.2c0.8-0.1,1.4,0.1,1.4,1.1c0,3.2,0,6.5,0,9.7c0,0.6-0.3,1.6-0.7,1.2c-2-1.6-5.3,2.5-6.5-1.6
		c-0.5-1.6-0.6-3.1,0-4.7c0.9-2.5,3.1-2.2,5.1-2.4C73.8,279.6,72.7,278.1,73.6,277.2z"/>
	<path class="st20" d="M105,153.2c0,3.6,0.1,7.1,0,10.7c0,1.3-4.6,2-6.1,1c-1.5-1.1-1.5-2.7-1.4-4.2c0.1-1.6,0.4-3.5,2.3-3.6
		c2.6-0.2,4.1-1.2,4.1-4.2C104.3,153,104.6,153.1,105,153.2z"/>
	<path class="st21" d="M146.8,54.8c5.4-1.8,5.7-1.6,5.7,2.8c0,1.1,0,2.2,0,3.3c-0.1,2-0.3,4,2.7,4.6c-2.7,0.9-5.1,0.7-7.8,0.2
		c3.8-0.7,3.2-3.4,3.1-5.8C150.4,57.6,152,54.4,146.8,54.8z"/>
	<path class="st22" d="M157.7,85.2c1-2.4,2.7-3.1,5.2-2.2c1.8,0.7,2.9,1.9,2.7,3.7c-0.3,2-2.1,0.8-3.2,1.1c-0.9,0.2-1.9,0-2.9,0
		c0.7,3.1,3.2,1.7,5.3,2.5c-2.9,1.7-5.1,1.9-6.9-1C157.1,88,157.3,86.6,157.7,85.2z"/>
	<path class="st23" d="M137.3,84.9c1.5-2.2,3.6-2.7,6-1.9c1.6,0.6,2.2,2.1,2.3,3.7c0.1,2.1-0.7,4-2.8,4.5c-2,0.5-4.3,0.7-5.4-1.9
		C136.9,87.9,137,86.4,137.3,84.9z"/>
	<path class="st24" d="M391,261.6c1,2.7,3.5,1.1,5.4,1.9c-2.3,1.9-4.4,1.8-6.3,0c-1.7-1.5-1.4-5,0.4-6.5c1.8-1.5,3.6-1.6,5.4,0.3
		c0.8,0.9,1.3,1.8,1.1,2.9c-0.3,1.6-1.7,0.8-2.7,1C393.2,261.3,392.1,260.8,391,261.6z"/>
	<path class="st25" d="M175.1,157.5c-1.3,1.5-3.9-0.3-4.1,1.3c-0.3,2,2.4,1.3,3.5,2.3c1.5,1.4,1.4,2.6-0.1,3.8
		c-0.4,0.3-0.9,0.6-1.3,0.5c-1.7-0.2-4.6,0.9-4.7-0.7c-0.2-1.9,2.5-0.2,3.8-0.7c0.5-0.2,0.9-0.2,1.1-0.8c-0.4-1.6-2.1-1.1-3.2-1.8
		c-1-0.6-1.9-1.3-1.6-2.5c0.3-1.1,0.8-2.3,2.4-2.1C172.2,156.9,173.8,156.1,175.1,157.5z"/>
	<path class="st25" d="M132.8,39.2c-1.3-2.3-6.1-0.8-4.8-4.8c1.1-3.4,4-1.2,6-1.6c0.4,1,0,1.2-0.3,1.3c-1.2,0.5-3.2-0.8-3.5,0.8
		c-0.3,1.7,1.9,1.3,3,1.9c1,0.6,1.8,1.2,1.6,2.5c-0.2,1.2-1.1,2.1-2.2,2.1c-1.8,0-4.7,1.1-5-0.8c-0.3-1.6,2.5,0,3.8-0.6
		C131.9,39.7,132.3,39.5,132.8,39.2z"/>
	<path class="st25" d="M173.5,262.5c-1.4-2.2-6.2-0.8-4.8-4.7c1.1-3.3,4-1.5,6.1-1.4c0.3,0.9-0.1,1-0.4,1.1
		c-1.1,0.5-3.2-0.8-3.4,0.8c-0.3,1.7,1.9,1.3,3,1.9c0.9,0.5,1.6,1.2,1.6,2.2c0,1.2-0.8,2.1-1.9,2.3c-1.8,0.3-3.8,0.7-5.2-0.2
		c-1-0.6-0.1-1.3,1-1.2c1,0.1,1.9,0.1,2.9,0.1C172.5,263.2,172.9,262.8,173.5,262.5z"/>
	<path class="st26" d="M167.7,65.2c0.8-1.3,1.8-0.5,2.7-0.6c0.8-0.1,1.7,0,2.3-1c-1.6-1.6-6.5-1.1-4.4-5.2c1.1-2.1,3.9-1.1,5.9-0.7
		c0.1,1-0.5,1-0.9,1.1c-1.1,0.3-2.8-0.8-3.1,0.7c-0.3,1.5,1.7,1.2,2.7,1.7c1.1,0.6,2.3,1.2,2,2.6c-0.3,1.3-1.3,2.1-2.6,2.1
		C170.8,66,169.1,66.7,167.7,65.2z"/>
	<path class="st26" d="M177.3,65.3c2.2-1.5,4.4,0.3,5.6-1.8c-1.6-1.6-6.3-1-4.6-5c1.1-2.5,3.9-1.3,6.7-0.7c-0.8,0.5-1,0.7-1.3,0.9
		c-1.1,0.5-3.1-0.9-3.3,0.9c-0.2,1.3,1.8,1.1,2.9,1.6c1,0.5,2,1.1,1.9,2.3c-0.1,1.3-1.1,2.2-2.4,2.3
		C181.1,66.1,179.5,66.4,177.3,65.3z"/>
	<path class="st27" d="M299.8,261.1c1.5,2.8,4,1.6,5.9,2.5c-1.9,1.6-3.7,1.5-5.4,0.4c-1.6-1-2-2.7-1.6-4.5c0.4-1.8,1.3-3.2,3.2-3.5
		c1.5-0.2,2.9-0.1,3.8,1.4c0.5,0.9,1.4,1.9,0.7,3c-0.8,1.2-2.2,0.5-3.3,0.6C302.1,261.2,301.1,261.1,299.8,261.1z"/>
	<path class="st28" d="M127.2,84c1.1-3.4,3.9-5.1,6.8-4.1c0.7,0.3,1.4,0.6,1.2,1.5c-0.1,0.5-0.6,0.7-1.1,0.4c-3.5-1.4-4.7,0.6-5,3.5
		c-0.4,3.2,1.1,4.4,4.8,4.6c0.4,0,0.7,0.1,1.1,0.2c-2.9,2.6-6,1.6-7.7-2.4C126.8,86.5,126.8,85.3,127.2,84z"/>
	<path class="st2" d="M86.4,74c1.1,3.2,1.1,20.3,0,23.3C86.4,89.5,86.4,81.8,86.4,74z"/>
	<path class="st2" d="M87,195.9c0-7.8,0-15.5,0-23.3c0.2,0,0.5,0,0.7,0c0,7.8,0,15.5,0,23.3C87.5,195.9,87.3,195.9,87,195.9z"/>
	<path class="st29" d="M185,157.1c-1.4,1.9-3.4,0.2-4.5,1.6c0.4,1.7,2,1.3,3,1.8c1,0.5,1.9,1.1,1.8,2.4c-0.1,1.5-1.1,2.2-2.4,2.3
		c-1.6,0.1-3.3,0.5-5-0.6c0.9-1.4,2.1-0.6,3-0.8c0.7-0.2,1.9,0.5,2-0.7c0.1-1.3-1.2-1.2-2-1.6c-1.1-0.5-2.7-0.5-2.9-2.2
		c-0.2-1.4,1-2.2,1.7-2.5C181.3,156.4,183.1,156.4,185,157.1z"/>
	<path class="st29" d="M185.2,256.7c-1.8,1.4-3.5,0.2-4.7,1.4c0.2,1.6,1.6,1.4,2.6,1.8c1.2,0.5,2.5,1.1,2.2,2.8
		c-0.3,1.6-1.5,2.1-2.9,2.1c-1.4-0.1-3.1,0.7-4.2-0.8c1.5-1.7,4.4,0.6,4.7-1.3c0.4-2-2.6-1.4-3.8-2.3c-0.6-0.5-1.1-0.9-1-1.8
		c0.1-1.2,1.1-2.1,2-2.3C181.5,255.8,183.2,255.7,185.2,256.7z"/>
	<path class="st29" d="M137.2,40.7c1.9-1.6,4.6,0.5,5-1.6c0.3-1.8-2.4-1.2-3.7-2.1c-2.2-1.5-1.2-3.1,0.4-3.9c1.5-0.8,3.5-1,5.4,0.3
		c-1.4,1.4-3.3,0-4.5,1.3c0.5,1.7,2.1,1.3,3.1,1.9c1,0.6,1.9,1.1,1.8,2.4c-0.1,1.5-1.2,2.1-2.4,2.2
		C140.8,41.5,139.1,41.8,137.2,40.7z"/>
	<path class="st30" d="M180.5,183.5c0.4,1.5,1.8,1.3,2.8,1.7c1.1,0.5,2.2,1.1,2,2.6c-0.2,1.6-1.4,2.2-2.8,2.2c-1.4,0-3,0.6-4.3-0.8
		c1-1.2,2.2-0.4,3.2-0.6c0.6-0.1,1.6,0.3,1.7-0.7c0.1-0.8-0.6-1.1-1.3-1.4c-1.5-0.7-4.3-0.5-3.5-3c0.7-2.3,3.3-2.3,5.6-2.1
		c0.5,0.1,0.9,0.3,0.9,0.9C183.6,183.6,181.6,182,180.5,183.5z"/>
	<path class="st31" d="M328.7,264c1.3-1.3,2.5-0.5,3.6-0.7c0.7-0.1,1.6,0.2,1.6-0.9c0-0.4-0.7-1.1-1.2-1.2c-2-0.3-4.3-0.8-3.7-3.2
		c0.7-2.6,3.4-2.2,5.6-2c0.3,0,0.5,0.3,1,0.6c-1.1,1.8-3.3,0-4.4,1.5c0.4,1.6,1.9,1.3,2.9,1.7c1.1,0.5,2.3,1.1,2,2.6
		c-0.3,1.5-1.4,2.2-2.9,2.2C331.8,264.7,330.2,265.1,328.7,264z"/>
	<path class="st32" d="M259.9,182.9c-0.6-0.2-1.7,0.2-1.9-0.6c-0.4-1.2,0.8-0.8,1.4-1c0.9-0.4,0.5-1.2,0.6-1.9
		c0.3-1.2,1.8-1.1,1.8-0.6c-0.1,3.2,2.6,2.2,4.8,3.1c-2.4,1-5.2,0.8-4.6,4.5c0.5,2.8,2.8,1.6,4.7,3.3c-2.6,0.2-4.3,0.9-6-0.9
		C259.7,187,261,184.8,259.9,182.9z"/>
	<path class="st33" d="M300.6,157.4c1.8-0.4,3.8-1.6,5.2,0.5c1.1,1.6,1.2,3.5,0.3,5.1c-1,1.7-2.8,2.5-4.9,2.4c-0.9,0-2-0.2-2-1.1
		c0-3.7-1.1-7.5,0.6-11.1C300.8,154.4,299.6,156.1,300.6,157.4z"/>
	<path class="st34" d="M251.2,179.2c-0.9-0.4-2.2,0.5-2.8-0.9c4.8-1.3,5-1.2,5,3.2c0,1,0,1.9,0,2.9c0,2.1-0.8,4.6,2.9,5
		c-2.8,0.8-5.3,0.7-8,0.4c0.5-1.9,2-0.9,2.9-1.4C251.9,185.4,251.9,182.3,251.2,179.2z"/>
	<path class="st35" d="M91.3,286.9c0.7-1.9,1.3-3.5,2-5c0.3-0.7,0.8-1.4,1.6-1.1c1,0.4,0.4,1.2,0.2,1.8c-0.7,1.7-1.3,3.4-2,5
		c-0.4,0.8-0.5,2-1.8,1.8c-1-0.1-1.3-0.8-1.6-1.6c-0.7-1.9-1.5-3.7-2.2-5.5c-0.1-0.4-1-1-0.2-1.4c0.6-0.3,1.4-0.2,1.8,0.6
		C89.8,283.2,90.5,284.9,91.3,286.9z"/>
	<path class="st35" d="M121,63.6c0.7-1.9,1.4-3.5,2-5.1c0.3-0.7,0.8-1.4,1.6-1.1c0.9,0.4,0.4,1.2,0.2,1.8c-0.6,1.6-1.2,3.1-1.9,4.6
		c-0.4,0.9-0.4,2.2-2,2.1c-1.2-0.1-1.4-1.1-1.8-2c-0.7-1.6-1.4-3.2-1.9-4.9c-0.2-0.5-1.1-1.3-0.2-1.7c0.8-0.4,1.6,0,2,0.9
		C119.6,60.1,120.3,61.7,121,63.6z"/>
	<path class="st35" d="M126.4,107c4,1,3,4.6,5,6.3c0.6-1.5,1.2-3.1,1.8-4.6c0.3-0.7,0.7-1.4,1.6-1.2c1,0.3,0.5,1.1,0.2,1.8
		c-0.7,1.8-1.4,3.6-2.2,5.3c-0.3,0.7-0.5,1.7-1.7,1.5c-1-0.1-1.3-0.8-1.7-1.6C128.6,112.2,127.6,110,126.4,107z"/>
	<path class="st36" d="M225.2,264.6c-1.3-0.8-2.5,0.2-3.8,0.1c-1.3,0-2.5-0.2-2.8-1.7c-0.3-1.6,0.6-2.2,1.9-3
		c1.1-0.6,3.6,0.6,3.3-1.4c-0.3-2.3-2.8-0.6-5-1.6c2.5-1.4,4.4-1.7,6.3,0C225.7,259.6,225.8,262.1,225.2,264.6z"/>
	<path class="st36" d="M285.4,264.6c-1.3-0.8-2.5,0.2-3.8,0.1c-1.3,0-2.5-0.2-2.8-1.7c-0.3-1.6,0.6-2.2,1.9-3
		c1.1-0.6,3.6,0.6,3.3-1.4c-0.3-2.3-2.8-0.6-5-1.6c2.5-1.4,4.4-1.7,6.3,0C285.9,259.6,285.9,262.1,285.4,264.6z"/>
	<path class="st36" d="M225.2,165.3c-1.3-0.8-2.5,0.2-3.8,0.1c-1.3,0-2.5-0.2-2.8-1.7c-0.3-1.6,0.6-2.2,1.9-3
		c1.1-0.6,3.6,0.6,3.3-1.4c-0.3-2.3-2.8-0.7-5.1-1.5c2.6-1.4,4.5-1.8,6.4-0.1C225.7,160.3,225.8,162.8,225.2,165.3z"/>
	<path class="st36" d="M426,264.6c-1.3-0.8-2.5,0.2-3.8,0.1c-1.3,0-2.5-0.2-2.8-1.7c-0.3-1.6,0.6-2.2,1.9-3c1.1-0.6,3.6,0.6,3.3-1.4
		c-0.3-2.3-2.8-0.6-5-1.6c2.5-1.4,4.4-1.7,6.3,0C426.6,259.6,426.6,262.1,426,264.6z"/>
	<path class="st37" d="M134.5,16.6c-1.2-0.7-2.3,0-3.4,0.1c-1.6,0.1-3-0.1-3.3-2c-0.2-1.6,1-2.1,2.3-2.7c1-0.5,3.2,0.7,2.9-1.4
		c-0.2-1.8-2.2-0.8-3.4-1.1c-0.4-0.1-0.9-0.1-1.8-0.3c2.6-1.5,4.6-1.9,6.6-0.1C135.1,11.7,135.1,14.1,134.5,16.6z"/>
	<path class="st36" d="M184.6,41.3c-1.3-0.8-2.5,0.2-3.8,0.1c-1.3,0-2.5-0.2-2.8-1.7c-0.3-1.6,0.6-2.2,1.9-3
		c1.1-0.6,3.6,0.6,3.3-1.4c-0.3-2.3-2.8-0.7-5.1-1.5c2.6-1.4,4.5-1.8,6.4-0.1C185.1,36.3,185.2,38.8,184.6,41.3z"/>
	<path class="st38" d="M153.4,163.8c0.6,0.4,2-0.4,2,0.9c0,1-1,0.7-1.7,0.7c-2,0-4,0-6.2,0c0.6-2.1,2.1-1.1,3-1.6
		c0.6-3.1,0.6-6.1,0-9.2c-0.6-0.4-1.9,0.3-1.9-0.9c0-1,1.1-0.6,1.7-0.6c0.8-0.1,1.6,0.1,2.4,0.1
		C153.7,156.7,152.4,160.3,153.4,163.8z"/>
	<path class="st38" d="M109.8,30.6c-0.6-0.4-1.9,0.3-1.9-0.9c0-1,1.1-0.6,1.7-0.6c0.8-0.1,1.6,0.1,2.4,0.1c1,3.5-0.3,7.2,0.7,10.6
		c0.6,0.4,2-0.4,2,0.9c0,1-1,0.7-1.7,0.7c-2,0-4,0-6.2,0c0.6-2.1,2.1-1.1,3-1.6C110.5,36.8,110.5,33.7,109.8,30.6z"/>
	<path class="st38" d="M150.5,253.9c-0.6-0.4-1.9,0.3-1.9-0.9c0-1,1.1-0.6,1.7-0.6c0.8-0.1,1.6,0.1,2.4,0.1c1,3.5-0.3,7.2,0.7,10.6
		c0.6,0.4,2-0.4,2,0.9c0,1-1,0.7-1.7,0.7c-2,0-4,0-6.2,0c0.6-2.1,2.1-1.1,3-1.6C151.1,260.1,151.1,257,150.5,253.9z"/>
	<path class="st39" d="M142.9,59c-1.5-0.4-2.5,0.1-3.1,1.2c-0.5,1-0.5,2.2,0,3.1c0.6,1.2,1.8,1.5,3.1,1.1c0.7-0.3,1.3-0.9,1.6,0.2
		c0.2,0.9-0.5,1.4-1.2,1.4c-1.7-0.1-3.8,0.9-5-1c-1-1.8-1.4-3.8-0.3-5.8c1.2-2,3-1.9,4.9-1.8c0.9,0,1.8,0.4,1.5,1.5
		C144.2,59.9,143.4,59.4,142.9,59z"/>
	<path class="st40" d="M80.8,38.6c1.9-2,0.9-5,3.8-5.8c0.6,2.2-1,3.9-1.7,5.7c-0.4,1.1-0.1,2.9-2,2.9c-2.1,0-1.8-1.8-2.2-3
		c-0.5-1.3-1-2.6-1.6-3.9c-0.3-0.6-1-1.3,0.2-1.7c0.8-0.2,1.3,0.1,1.6,1C79.4,35.3,80,36.8,80.8,38.6z"/>
	<path class="st40" d="M121.5,163c0.9-2.3,1.6-3.9,2.1-5.6c0.3-0.8,0.8-0.8,1.4-0.7c1.1,0.2,0.3,0.9,0.2,1.3
		c-0.7,1.9-1.4,3.8-2.1,5.7c-0.3,1-0.7,1.7-1.9,1.7c-1.2,0-1.3-0.9-1.6-1.6c-0.7-1.7-1.2-3.6-1.9-5.3c-0.3-0.6-1-1.3,0-1.7
		c0.9-0.4,1.5,0.2,1.8,1.2C120,159.4,120.6,160.8,121.5,163z"/>
	<path class="st41" d="M293.4,64.5c0.8,0.2,2-0.3,2.2,0.7c0.2,1.3-1.2,0.9-1.8,0.9c-1.6-0.1-3.3,0.4-5-0.4c3.6-2.8,3.7-8.9,0.3-11.6
		c1.1-0.7,2.3-0.4,3.5-0.3C293.7,57.3,292.2,61,293.4,64.5z"/>
	<path class="st41" d="M273.8,163.9c0.8,0.2,2-0.3,2.2,0.7c0.2,1.3-1.2,0.8-1.9,0.9c-1.6,0.1-3.3,0-5.5,0c4.1-3.2,4.2-9.3,0.8-12
		c1.1-0.7,2.3-0.4,3.5-0.3C274.1,156.7,272.6,160.4,273.8,163.9z"/>
	<path class="st42" d="M238.9,159.5c-0.1-1.1,0.7-2,1.5-2.1c2.8-0.2,4.1-1.9,5.1-4.2c0.6,4,0.6,8.1,0,12.1c-1-0.5-1.8-0.9-3.1-0.2
		c-1.6,0.8-3.3,0.6-3.5-1.8C238.4,162,238.5,160.7,238.9,159.5z"/>
	<path class="st43" d="M355.6,256.9c-2.1,0.7-4.9,0.3-4.9,3.6c0,3.2,2.8,2.8,5.1,3.1c-2.1,1.4-4,1.8-5.7,0.1c-1.7-1.7-2.3-3.7-0.6-6
		C351.2,255.2,353.3,255.9,355.6,256.9z"/>
	<path class="st42" d="M238.9,258.8c-0.1-1.1,0.7-2,1.5-2.1c2.8-0.2,4.1-1.9,5.1-4.2c0.6,4,0.6,8.1,0,12.1c-1-0.5-1.8-0.9-3.1-0.2
		c-1.6,0.8-3.3,0.6-3.5-1.8C238.4,261.3,238.5,260.1,238.9,258.8z"/>
	<path class="st43" d="M144.6,256.9c-2.1,0.6-4.6,0.3-4.9,3.3c-0.3,3.6,3,2.7,5.7,3.7c-2.9,1.1-4.8,1.7-6.6-0.5
		c-1.6-1.9-1.8-3.7-0.3-5.8C140.2,255.2,142.4,255.9,144.6,256.9z"/>
	<path class="st44" d="M281.9,63.9c0.8,1.4,2.9-0.1,3.7,1.5c-4.1,1.4-5.4,0.6-5.5-3.4c0-1.9,0.1-3.6-2.8-3.6c2-1.2,2.7-2,3.9-4.4
		c0,3.4,2.3,3.3,4.6,3.5c-1.1,2-2.7,0.9-3.9,1.3C281,60.5,281,62.2,281.9,63.9z"/>
	<path class="st43" d="M104,33.5c-2,0.9-4.9,0.3-4.9,3.6c0,3.4,3,2.6,5.6,3.3c-2.5,1.4-4.4,1.8-6.2,0.1c-1.6-1.6-2.3-3.4-0.9-5.7
		C99.3,31.9,101.6,32.6,104,33.5z"/>
	<path class="st43" d="M145.5,157.5c-2.8,1-6,0.3-5.8,3.8c0.2,3,2.7,2.8,4.9,3.2c-1.9,0.8-3.7,1.7-5.4,0.1c-1.9-1.8-2.5-3.9-0.7-6.3
		C140.3,155.8,142.4,156.5,145.5,157.5z"/>
	<path class="st45" d="M157.7,16.3c0.9-0.8,1-1,1.1-1c1.4-0.4,3.8,0.8,4.2-0.8c0.5-1.7-2.1-1.3-3.2-2c-1.2-0.8-1.8-1.8-1.1-3
		c1.2-1.9,3-1.8,4.8-1.1c-0.4,1.4-1.2,1-1.9,1.1c-0.6,0.1-1.3,0.1-1.3,0.8c0,0.6,0.6,1,1.2,1.2c1.7,0.7,4.5,1,3.2,3.5
		C163.4,17.8,160.7,16.8,157.7,16.3z"/>
	<path class="st46" d="M289.7,261.9c0.7,2.3,2.6,1.1,3.9,1.3c1.4,0.3,2.5,0.5,2.6,2.3c0.1,1.9-1,2.5-2.6,2.8
		c-4.8,0.9-6.1-1.3-4.2-7.3C289.9,261.3,290,261.5,289.7,261.9z"/>
	<path class="st47" d="M204.8,41.3c-0.6,0.1-1.1,0.2-1.4-0.5c-0.4-0.5-1.1-0.8-1.2-1.5c-0.1-0.5,0-1,0.1-1.5
		c0.1-0.6,0.2-1.1-0.3-1.6c-2.2,0.2-1.2,2.5-2.4,3.4c-0.4,0.4-0.8,0.6-1.4,0.4c-1.7-5.1-0.3-7.2,5.1-7.4c1-1-0.1-2.4,0.8-3.4
		c0.2-0.1,0.4-0.1,0.6-0.1C205.5,33.2,205.5,37.3,204.8,41.3z"/>
	<path class="st47" d="M466.6,264.6c-0.6,0.1-1.1,0.2-1.4-0.5c-0.4-0.5-1.1-0.8-1.2-1.5c-0.1-0.5,0-1,0.1-1.5
		c0.1-0.6,0.2-1.1-0.3-1.6c-2.2,0.2-1.2,2.5-2.4,3.4c-0.4,0.4-0.8,0.6-1.4,0.4c-1.7-5.1-0.3-7.2,5.1-7.4c1-1-0.1-2.4,0.8-3.4
		c0.2-0.1,0.4-0.1,0.6-0.1C467.3,256.5,467.3,260.6,466.6,264.6z"/>
	<path class="st48" d="M289.7,261.9c-0.1-0.3-0.1-0.6-0.2-0.9c-1.4-2.4-0.6-4.6,2.2-4.9c1.5-0.2,3.1,0,4.7,0
		C295.7,259.9,294.4,262.8,289.7,261.9z"/>
	<path class="st49" d="M200.5,180c-0.6-0.3-1.7,0.2-1.9-0.7c-0.2-1.2,0.9-0.8,1.5-0.9c1.2-0.1,2.4-0.1,3.6,0c0.6,0,1.7-0.3,1.7,0.7
		c0,1.3-1.3,0.5-2,0.9c-0.6,2.8-0.6,5.6,0,8.5c0.6,0.4,2-0.4,2,0.9c0,1-1.1,0.6-1.7,0.7c-1.2,0.1-2.4,0.1-3.6,0
		c-0.6,0-1.7,0.3-1.5-0.9c0.2-0.9,1.2-0.4,1.9-0.7c0.2-0.2,0.4-0.5,0.6-0.8c0.2-2.3,0.2-4.6,0-6.9C201,180.5,200.8,180.2,200.5,180z
		"/>
	<path class="st50" d="M470.2,258c0-1.5,1.3-1.5,2.2-1.9c0.4,0.3,0.6,0.7,0.6,1.2c0,0.4,0,0.7,0.1,1.1c0.2,0.1,0.4,0.1,0.5-0.1
		c0.2-0.5,0.3-1,0.6-1.4c0.4-0.3,0.7-0.5,1.2-0.3c1.8,1.1,2.1,3.1,0.8,4.1c-1,0.8-3.1,0.4-4.9,0.6c1.5,1.8,1.5,1.8,5.7,2.1
		c-2.7,1.8-4.8,2-6.8-0.2C469.6,261.5,469.8,259.7,470.2,258z"/>
	<path class="st50" d="M299.1,59.3c0-1.5,1.3-1.5,2.2-1.9c0.4,0.3,0.6,0.7,0.6,1.2c0,0.4,0,0.7,0.1,1.1c0.2,0.1,0.4,0.1,0.5-0.1
		c0.2-0.5,0.3-1,0.6-1.4c0.4-0.3,0.7-0.5,1.2-0.3c1.8,1.1,2.1,3.1,0.8,4.1c-1,0.8-3.1,0.4-5,0.6c1.2,3,3.7,1.3,5.7,2.1
		c-2.5,1.8-4.7,1.9-6.7-0.3C298.5,62.8,298.7,61,299.1,59.3z"/>
	<path class="st51" d="M143.3,183.3c-1.3-1.1-2.1-0.1-2.9,0.6c-1.1,1.9,0.2,4.1-0.8,6c-0.6,0-1.3,0.2-1.3-0.7c0-3.6,0-7.2,0-10.8
		c0-0.9,0.8-0.7,1.3-0.7c0.9,1.2-0.1,2.8,0.6,4c1.5-0.3,3.1-1.3,4.4,0.3c0.5,0.4,0.4,0.9,0.2,1.4c-0.3,0.2-0.6,0.3-0.9,0.4
		C143.6,183.9,143.4,183.6,143.3,183.3z"/>
	<path class="st52" d="M100.4,257.6c-0.6-0.2-1.7,0.2-1.9-0.7c-0.3-1.2,0.8-0.9,1.4-0.9c0.9,0.1,2.3-0.7,2.6,0.9
		c0.1,0.7,0.1,1.4,0.1,2.1c0,2.1-0.7,4.6,3,4.9c-2.9,0.8-5.4,0.9-8.1,0.3c0.8-1.7,2.1-0.7,2.9-1.2
		C101.1,261.3,101.1,259.4,100.4,257.6z"/>
	<path class="st53" d="M70,34.3c-0.9-0.4-2.2,0.5-2.8-0.9c4.4-1.6,5-1.2,4.9,3.1c-0.1,2,0,3.6,2.6,4.3c-2.7,0.8-5,0.7-7.7,0.4
		c0.8-1.9,2.1-0.9,3-1.4C70.6,38,70.6,36.1,70,34.3z"/>
	<path class="st52" d="M120,108.9c-0.6-0.2-1.7,0.2-1.9-0.7c-0.3-1.2,0.8-0.9,1.4-0.9c0.9,0.1,2.3-0.7,2.6,0.9
		c0.1,0.7,0,1.4,0.1,2.1c0.1,2.1-1,4.7,3.1,4.8c-3.1,0.9-5.6,1-8.3,0.4c0.8-1.7,2.1-0.7,2.9-1.2C120.6,112.7,120.6,110.8,120,108.9z
		"/>
	<path class="st54" d="M59.8,9.6c-0.6-0.4-1.9,0.4-2-0.9c-0.1-0.8,0.8-0.8,1.3-0.7c1,0.2,2.5-0.9,2.9,1c0.1,0.7,0.1,1.4,0,2.2
		c-0.1,2.2-0.5,4.5,3,4.9c-2.9,0.8-5.4,0.8-8.3,0.4c0.6-1.9,2.1-1,3-1.4C60.4,13.3,60.4,11.5,59.8,9.6z"/>
	<path class="st53" d="M110.6,158.2c-0.9-0.4-2.2,0.5-2.8-0.9c4.4-1.6,5-1.2,4.9,3.1c-0.1,2,0,3.6,2.6,4.2c-2.7,0.8-5,0.9-7.6,0.3
		c0.7-1.7,2.1-0.8,2.9-1.2C111.2,162,111.2,160.1,110.6,158.2z"/>
	<path class="st53" d="M120.7,207.6c-0.9-0.4-2.2,0.5-2.8-0.9c4.4-1.6,5-1.2,4.9,3.1c-0.1,2,0,3.6,2.6,4.3c-2.7,0.8-5,0.7-7.7,0.4
		c0.8-1.9,2.1-0.9,3-1.4C121.4,211.3,121.4,209.4,120.7,207.6z"/>
	<path class="st55" d="M153.4,188.5c0.6,0.4,1.9-0.4,2,0.9c0,1-1,0.7-1.7,0.7c-2,0-4,0-6.2,0c0.6-2,2.1-1.2,3-1.6
		c0.6-1.9,0.6-3.7,0-5.6c-0.6-0.3-1.9,0.3-1.9-0.9c0-1,1-0.6,1.6-0.6c0.8,0,1.6,0.1,2.4,0.1C153.7,183.7,152.4,186.2,153.4,188.5z"
		/>
	<path class="st56" d="M215.6,257.1c-2.8,0.4-5.5,0.3-5.3,3.5c0.1,2.9,2.6,2.5,4.6,3.1c-1.7,1.4-3.5,1.4-5,0
		c-1.9-1.7-1.9-3.9-0.5-5.9C210.7,255.8,212.7,255.3,215.6,257.1z"/>
	<path class="st56" d="M215.4,164.4c-2.6,1.6-4.5,1.4-6-0.5c-1.5-1.8-1.3-3.8,0.1-5.6c1.5-1.9,3.4-2.1,6.5-0.7
		c-3,0.7-5.8,0.4-5.7,3.6C210.3,164.4,213.2,163.6,215.4,164.4z"/>
	<path class="st56" d="M174.3,40.4c-2.1,1.5-4,1.4-5.5-0.6c-1.5-1.9-1.3-4.1,0.4-5.9c1.6-1.7,3.4-1.6,5.2-0.4
		c-2.2,0.7-4.8,0.5-4.7,3.8C169.8,40.3,172.3,39.8,174.3,40.4z"/>
	<path class="st57" d="M163.5,183.6c-3-1.7-3.2,0.4-3.6,2.5c-0.3,1.3,1.5,3.4-1.4,3.8c-0.6-2.8-0.6-5.7,0-8.5
		c2.1,0.5,4.9-1.3,6.5,1.5c0.7,2.3,0.6,4.6,0,6.9l-0.3,0.1l-0.3-0.1C163.2,187.9,164.6,185.6,163.5,183.6z"/>
	<path class="st58" d="M83.1,287.8c0.6,0.2,1.7-0.2,1.9,0.7c0.3,1.2-0.8,0.9-1.4,0.9c-1.8,0.1-3.7,0-5.7-0.4c2.8-0.7,3-2.5,3-4.8
		c0-2.1-1.6-2-3.2-2.5c1.7-1.6,3.3-0.9,4.7-1C83.4,283,82,285.5,83.1,287.8z"/>
	<path class="st58" d="M32.3,15.2c0.6,0.2,1.7-0.2,1.9,0.7c0.3,1.2-0.8,0.9-1.4,0.9c-1.8,0.1-3.7,0-5.7-0.4c2.8-0.7,2.9-2.6,3-4.8
		c0.1-2.3-1.8-1.7-3-2.8c1.4-1.3,3-0.6,4.4-0.7C32.7,10.3,31.2,12.9,32.3,15.2z"/>
	<path class="st59" d="M449.8,258c1.5-2.5,3.7-2.6,5.8-1.2c2.2,1.4,2.4,3.8,1.1,5.7c-1.4,2-3.5,3.3-6.1,1.5c-0.2-0.6,0.1-1,0.5-1.3
		c0.5-0.3,1-0.5,1.6-0.8c0.7-0.3,1.2-0.8,1.1-1.6c-0.2-1.1-1.1-1-1.9-0.9c-0.6,0.1-1.2,0.1-1.7-0.1
		C449.8,258.9,449.5,258.6,449.8,258z"/>
	<path class="st58" d="M112.8,64.5c0.6,0.2,1.7-0.2,1.9,0.7c0.3,1.2-0.8,0.9-1.4,0.9c-1.8,0.1-3.7,0-5.7-0.4c2.8-0.7,2.9-2.6,3-4.8
		c0.1-2.3-1.8-1.7-3-2.8c1.4-1.3,3-0.6,4.4-0.7C113.1,59.6,111.7,62.2,112.8,64.5z"/>
	<path class="st60" d="M339.7,256.1c1,0.7,1.8,0.3,2.9,0c1.5-0.4,3.2-0.4,4,1.5c0.3,0.7,0.6,1.4-0.2,1.9c-0.5,0.3-1.1,0.2-1.5-0.5
		c-0.4-0.8-0.9-1.9-2.1-1.2c-1.1,0.6-1.5,1.6-1.7,2.9c-0.2,1.3,1.6,3.5-1.3,3.9C339.1,261.8,339.1,259,339.7,256.1z"/>
	<path class="st61" d="M215.8,64.8c-3.1,1.8-5.3,1.8-6.8-0.3c-1.3-1.8-1.1-4,0.4-5.7c1.6-1.8,3.6-1.9,5.7-0.4
		c-2.3,0.6-5.4-0.1-5.1,3.8C210.2,65.6,213,64.3,215.8,64.8z"/>
	<path class="st62" d="M189.7,41.3c-1-0.9-2.1-7.5-1.1-7.9c1.6-0.6,3.5-0.8,5.1-0.4c1.2,0.3,2.4,1.5,1.2,3.8c-1-2.7-2.4-3.4-4.3-1.2
		C189.3,37.3,190.6,39.5,189.7,41.3z"/>
	<path class="st63" d="M446.2,263.6c-1.8,2-3.8,1.5-5.3,0.1c-1.7-1.5-1.6-3.8-0.5-5.6c1.3-2.2,3.5-2.5,5.9-1.3
		c-2.4,0.8-5.3,0.8-4.8,4.6C441.9,264.5,444.6,262.6,446.2,263.6z"/>
	<path class="st62" d="M230.3,264.6c-1-0.9-2.1-7.5-1.1-7.9c1.6-0.6,3.5-0.8,5.1-0.4c1.2,0.3,2.4,1.5,1.2,3.8
		c-1-2.7-2.4-3.4-4.3-1.2C229.9,260.6,231.2,262.8,230.3,264.6z"/>
	<path class="st62" d="M230.3,165.3c-1-0.9-2.1-7.5-1.1-7.9c1.6-0.6,3.5-0.8,5.1-0.4c1.2,0.3,2.4,1.5,1.2,3.8
		c-1-2.7-2.4-3.4-4.3-1.2C229.9,161.3,231.2,163.5,230.3,165.3z"/>
	<path class="st63" d="M124.3,15.6c-2,1.9-4,1.5-5.5,0c-1.6-1.5-1.6-3.8-0.4-5.6c1.4-2.1,3.4-2.7,6.5-1c-2.9,0.6-5.8,0.4-5.5,4.1
		C119.8,16.4,122.6,14.7,124.3,15.6z"/>
	<path class="st64" d="M230.2,188c1.7,1.6,2.6-0.2,3.7-1c1-1.8-0.2-3.8,0.7-5.6c0.2-0.1,0.4-0.1,0.7,0c0.8,2.8,0.8,5.6,0,8.4
		c-2-1.4-4.8,1.7-6.4-1.2c-0.6-2.4-0.6-4.8,0-7.2c0.2-0.1,0.5-0.1,0.7,0C230.5,183.6,229.3,185.9,230.2,188z"/>
	<path class="st65" d="M93.9,65.9c-2.6-0.9-3.8-2.8-5.5-4c-0.7-0.5-0.8-1.2,0-1.8c1.7-1.3,2.9-3.1,4.9-3.9c0.2,0.4,0.5,0.7,0.4,0.7
		c-0.9,0.9-1.7,2-2.7,2.7c-1.5,1.2-0.8,1.8,0.2,2.8C92.2,63.3,93.5,63.8,93.9,65.9z"/>
	<path class="st65" d="M94,105.8c-0.7,2.9-3.9,3.3-3.8,5.3c0.1,1.7,2.9,2.3,3.9,4.8c-3.1-1.1-5.8-2.9-5.9-4.9
		C88.1,109.1,91.1,107.4,94,105.8z"/>
	<path class="st66" d="M243.6,188.6c0.6,0.1,1.5-0.3,1.7,0.7c0.2,0.9-0.6,0.8-1.2,0.8c-1.9,0-3.9,0-6.2,0c0.8-2,2.2-1.2,3.1-1.6
		c0.6-1.9,0.6-3.7,0-5.6c-0.7-0.3-2.2,0.2-1.9-0.8c0.5-1.5,2.1-0.6,3.3-0.7C243.8,183.7,241.9,186.4,243.6,188.6z"/>
	<path class="st67" d="M130.2,180c-0.9-0.4-2.2,0.5-2.9-1.2c2.9-0.7,5.7-0.4,8.7-0.2c-0.5,1.9-2,1-2.9,1.4c-1,3.2,0.3,6.7-0.7,9.9
		c-0.2,0-0.5,0-0.7,0c-1.5-2.9-0.3-6-0.8-9C130.7,180.6,130.5,180.3,130.2,180z"/>
	<path class="st68" d="M138.9,214.8c0.7-3.1,4-3.3,3.8-5.4c-0.2-1.7-3-2.1-3.9-4.9c2.9,1.3,5.9,3,5.9,5.1
		C144.9,211.6,141.8,213.1,138.9,214.8z"/>
	<path class="st68" d="M218.6,31.3c2.9,1.1,4.2,3,6,4.3c0.4,0.3,0.5,0.9,0.1,1.3c-1.7,1.5-3.5,2.9-6,5c0.7-3.4,4-3.6,3.9-5.6
		C222.4,34.4,219.5,34.1,218.6,31.3z"/>
	<path class="st68" d="M540.6,254.8c2.9,0.8,4.1,2.8,5.9,4.1c0.6,0.4,0.6,1.1,0,1.5c-1.8,1.3-3,3.3-5.7,4c0.5-2.6,3.8-2.9,3.7-4.8
		C544.4,257.8,541.6,257.4,540.6,254.8z"/>
	<path class="st69" d="M154.8,91.3c-2-1.3-4.4,1.4-6.3-0.7c-0.8-0.4-0.5-1.1-0.6-1.8c0.9-1.6,2.7-0.2,3.8-1.2
		c0.2-0.2,0.5-0.3,0.7-0.5c0.9-1,0.5-2.3,0.7-3.4c0.1-0.5,0.3-1,0.3-1.5c0.1-1.1-0.2-2.2,0.7-3.1c0.2,0,0.5,0,0.7,0
		C155.4,83.2,155.4,87.3,154.8,91.3z"/>
	<path class="st70" d="M414.5,263.2c0.7,0.3,1.7-0.2,2.4,0.9c-2.3,1.2-4.5,0.5-7.1,0.4c0.9-1.6,3.7-1.4,2.9-3.9
		c-0.5-1.6,0.5-3.9-3.4-3.3c1.9-1.6,3.2-1.3,4.4-1.2C414.7,258.4,413.4,260.9,414.5,263.2z"/>
	<path class="st70" d="M263.6,263.2c0.7,0.3,1.7-0.2,2.4,0.9c-2.3,1.2-4.5,0.5-7.1,0.4c0.9-1.6,3.7-1.4,2.9-3.9
		c-0.5-1.6,0.5-3.9-3.4-3.3c1.9-1.6,3.2-1.3,4.4-1.2C263.9,258.4,262.5,260.9,263.6,263.2z"/>
	<path class="st71" d="M273.2,64.5c0.6,0.2,1.7-0.2,1.8,0.7c0.2,1.1-0.9,0.8-1.5,0.8c-1.6,0.1-3.1,0-4.9-0.4c2.5-0.8,3-2.2,3-4.5
		c-0.1-2.1-1.1-2.5-3.6-2.5c1.9-1.6,3.1-1.2,4.3-1.1C273.4,59.7,271.8,62.3,273.2,64.5z"/>
	<path class="st72" d="M98.2,279.8c3.4,0.6,6.2,2.4,6.2,4.6c0,2-2.9,3.7-5.7,3.9c1.3-1.3,3.4-2.4,3.6-3.8
		C102.6,282.6,99.9,281.9,98.2,279.8z"/>
	<path class="st73" d="M41.8,16c-1.7,1.6-2.4,0.5-2.9-1.1c-0.8-2.2-1.7-4.4-2.8-7c4.2,0.5,2.9,4.8,4.8,6.5
		C42.2,14.4,42.2,15.1,41.8,16z"/>
	<path class="st74" d="M13,7.5c-2.8,3.4-2.8,3.4,0.6,9.1c-2.8-1.4-5.7-2.7-5.6-5.2C8,9.8,10.4,7.7,13,7.5z"/>
	<path class="st74" d="M54.2,280.1c-6.2,3.1-2.9,5.8,0.1,8.7c-2.9-0.9-5.7-2.3-5.7-4.7C48.6,282.4,51,280.4,54.2,280.1z"/>
	<path class="st72" d="M318.5,65.7c4.8-4.7,4.8-4.7,0.3-9.2c3.3,0.4,6.1,2.4,6.1,4.5C324.9,63.2,321.9,64.9,318.5,65.7z"/>
	<path class="st75" d="M506.5,264.7c-2.3-0.9-1.1-2.9-1.1-4.3c-0.1-2.5-0.9-3.4-3.3-2.2c-1-0.2-2.3-0.3-1.4-1.9
		c1.8,1,4.2-1.5,5.8,0.9C507,259.6,507.1,262.1,506.5,264.7z"/>
	<path class="st76" d="M132.5,214.3c-0.9,0.5-1.7,0.9-2.3-0.4c-0.9-2-1.9-4.1-2.8-6.1c-0.2-0.5-0.2-1.3,0.4-1.6
		c0.7-0.3,1.4-0.1,1.7,0.8c0.5,1.6,1,3.2,1.6,4.7C131.9,212.3,132.9,212.9,132.5,214.3z"/>
	<path class="st77" d="M132.5,214.3c-0.5-0.9-1.6-1.4-1.5-2.6c2.1-0.9,1.4-3.3,2.6-4.7c0.5-0.6,0.8-1.2,1.6-0.9
		c1.2,0.4,0.3,1.2,0.1,1.7C134.4,210,133.5,212.1,132.5,214.3z"/>
	<path class="st78" d="M244.7,65.9c-0.9,0.1-0.8-0.7-1.1-1.2c-0.3,0.1-0.6,0.2-1,0.1c-1.1-1.7,0.8-4.7-2.5-5.4
		c-0.4-0.4-0.7-0.8-0.5-1.4c2.4-0.6,4.6-1.5,5.1-4.3C245.3,57.9,245.3,61.9,244.7,65.9z"/>
	<path class="st79" d="M490.6,256.7c2.2,0.1,4.9-2,6.5,1.2c0.3,1.6,0.8,3.1-0.2,4.6c-0.2,0.1-0.3,0.2-0.5,0.2
		c-0.5-0.1-1-0.3-1.3-0.7c-0.7-1.9-1.9-3.2-4.2-2.6c-0.3-0.1-0.6-0.4-0.8-0.7C489.8,257.9,489.9,257.2,490.6,256.7z"/>
	<path class="st8" d="M247.1,68.3c3.2,0,6.4-0.4,9.6,1c-3.2,0-6.4,0-9.7,0C247.1,69,247.1,68.7,247.1,68.3z"/>
	<path class="st80" d="M180.9,13.7c3.9-3.4-1.7-3.8-1.8-6.3c2.3,0.8,4.5,1.9,5.4,4c0.7,1.5-1.6,2.3-2.7,3.3
		C181,14.7,180.6,14.5,180.9,13.7z"/>
	<path class="st81" d="M224.5,65.9c-1.3-0.6-2.5,0.3-3.8,0.2c-1.2-0.1-2.2-0.4-2.6-1.5c-0.5-1.2-0.2-2.3,1.3-2.8
		c0.4,0.2,0.9,0.3,1.2,0.7c1,1.8,2.2,0.1,3.3,0.3c0.3,0.1,0.6,0.3,0.8,0.6C224.8,64.2,225,65.1,224.5,65.9z"/>
	<path class="st82" d="M239.7,58.1c0.3,0.3,0.6,0.6,0.8,0.8c0.3,0.6,0.2,1.2,0.1,1.9c-0.1,0.7-0.2,1.4,0.3,2c0.5,0.6,1.1,1,1.4,1.7
		c0.4,0.1,0.8,0.2,1.3,0.2c-1.6,1.6-3.5,2.2-4.9,0.2C237,62.6,237,60.1,239.7,58.1z"/>
	<path class="st83" d="M284.7,156.8c1.6,1.2,2.1,7.1,0.7,8.4c-0.1,0-0.5-0.3-0.8-0.5c-0.3-0.6-1.2-0.2-1.5-0.8
		c0.3-0.4,0.6-0.8,0.9-1.2C284.8,160.8,283.6,158.6,284.7,156.8z"/>
	<path class="st8" d="M247.7,267.8c3.1-1,6.1-1.1,9.1,0C253.8,267.8,250.8,267.8,247.7,267.8z"/>
	<path class="st84" d="M154.1,16.6c-0.5-0.2-1.1-0.5-1.6-0.5c-5.1,0.3-6.1-1.1-4.3-6.2c0.3,0.1,0.6,0.3,0.8,0.6
		c0.7,1.6,1.1,3.5,3.6,2.6c0.4,0,0.7,0,1,0.1c0.3,0.2,0.6,0.4,0.8,0.7C154.4,14.9,154.7,15.8,154.1,16.6z"/>
	<path class="st85" d="M41.8,16c-0.3-0.5-0.6-1-0.9-1.5c0.6-1.8,1.2-3.6,1.8-5.4c0.3-0.7,0.8-1.3,1.6-1c1.1,0.4,0.3,1.3,0.1,1.8
		C43.6,12,42.7,14,41.8,16z"/>
	<path class="st84" d="M405.8,264.6c-0.5-0.2-1.1-0.5-1.6-0.5c-5.1,0.3-6.1-1.1-4.3-6.2c0.3,0.1,0.6,0.3,0.8,0.6
		c0.7,1.6,1.1,3.5,3.6,2.6c0.4,0,0.7,0,1,0.1c0.3,0.2,0.6,0.4,0.8,0.7C406,262.8,406.3,263.7,405.8,264.6z"/>
	<path class="st8" d="M247.7,168.4c3-0.9,6.1-1.1,9.1-0.1C253.8,169.4,250.8,168.9,247.7,168.4z"/>
	<path class="st86" d="M138.8,8.2c1,0.5,1.8,0.6,2.9,0c1.5-0.7,2.8,0.1,3.5,1.6c0.3,0.6,0.5,1.3-0.1,1.6c-0.6,0.4-1-0.1-1.3-0.7
		c-1.1-2.2-2.3-1-3.4,0c-0.2,0.4-0.5,0.6-0.9,0.6c-0.4,0-0.7-0.2-1-0.5C138.1,9.9,138.1,9,138.8,8.2z"/>
	<path class="st87" d="M384,257.4c0,0.4,0,0.8,0,1.3c-0.9,1.9,0.2,4-0.7,5.9c-2.1,0-1.2-1.6-1.3-2.6c-0.2-1.5-0.2-3-0.2-4.5
		c-0.2-0.5-0.2-0.9,0-1.4C383,255.7,383.1,257.4,384,257.4L384,257.4z"/>
	<path class="st88" d="M291.9,158.8c-1.7,1.8-0.2,4.4-1.8,6.4c-0.6-2.7-1.9-5.5,0.3-8.2C290.8,157.8,292.2,157.6,291.9,158.8z"/>
	<path class="st89" d="M86.8,10.3c2.7-1.1,5.5-0.7,8.2-0.1C92.3,11.1,89.5,11.1,86.8,10.3z"/>
	<path class="st89" d="M155.2,34.8c-2.7,1-5.5,0.9-8.2,0C149.6,33.9,152.4,34.1,155.2,34.8z"/>
	<path class="st90" d="M187.6,258.4c2.8-1.3,5.5-0.8,8.3-0.4C193.2,259.6,190.4,258.6,187.6,258.4z"/>
	<path class="st90" d="M195.9,161.7c-2.8,0.9-5.6,1-8.3,0C190.4,160.8,193.1,160.9,195.9,161.7z"/>
	<path class="st90" d="M187.6,158.9c2.8-0.9,5.6-1,8.3,0C193.2,159.9,190.4,159.7,187.6,158.9z"/>
	<path class="st89" d="M155.2,37.6c-2.7,1.2-5.5,1-8.2,0.2C149.6,36.6,152.4,37.2,155.2,37.6z"/>
	<path class="st90" d="M187.6,261.3c2.8-1.1,5.5-1.1,9.4-0.3C193.2,262.4,190.4,261.6,187.6,261.3z"/>
	<path class="st89" d="M95,13c-2.7,1.2-5.5,0.7-8.2,0.2C89.5,12.2,92.2,12.3,95,13z"/>
	<path class="st91" d="M90.2,259.6c1.4,1.4,2.8,2.7,4.2,4.1c-2.9,0-4.6-1.8-6.1-3.7c-0.5-0.7,0.5-1.4,1.3-1.8
		C90.2,258.4,90,259.1,90.2,259.6z"/>
	<path class="st91" d="M90.2,209.6c1.4,1.4,2.8,2.7,4.2,4.1c-2.9,0-4.6-1.8-6.1-3.7c-0.5-0.7,0.5-1.4,1.3-1.8
		C90.2,208.4,90,209.1,90.2,209.6z"/>
	<path class="st91" d="M90.2,160.3c1.4,1.4,2.8,2.7,4.2,4.1c-2.9,0-4.6-1.8-6.1-3.7c-0.5-0.7,0.5-1.4,1.3-1.8
		C90.2,159.1,90,159.8,90.2,160.3z"/>
	<path class="st91" d="M49.6,36.3c1.4,1.4,2.8,2.7,4.2,4.1c-2.9,0-4.6-1.8-6.1-3.7c-0.5-0.7,0.5-1.4,1.3-1.8
		C49.6,35.1,49.4,35.8,49.6,36.3z"/>
	<path class="st92" d="M187.7,62.5c2.5-0.9,5.1-1.1,7.6-0.1C192.8,63.5,190.3,63.1,187.7,62.5z"/>
	<path class="st93" d="M358.9,258.3c2.5-1.3,5.1-0.8,7.6-0.1C364,259.1,361.5,259.1,358.9,258.3z"/>
	<path class="st93" d="M358.9,261.1c2.5-1,5.1-0.8,7.6-0.1C364,262.2,361.5,262,358.9,261.1z"/>
	<path class="st94" d="M101.2,111.7c-0.8,2.4-1.4,4.9-3.6,6.5c0.3-2.7,1.3-5.1,2.7-7.3C100.8,110.9,101,111.3,101.2,111.7z"/>
	<path class="st92" d="M195.3,59.5c-2.5,1-5.1,0.9-7.6,0C190.2,58.6,192.7,58.6,195.3,59.5z"/>
	<path class="st95" d="M259.3,58.9c-0.4-0.2-1-0.2-1.2-0.5c-0.5-0.8,0.2-0.9,0.8-1.1c2.1-0.9,4.1,0.2,6.4,0.2
		c-0.8,1.9-2.3,1-3.4,1.3c-0.3,0.1-0.5,0.3-0.8,0.4c-0.3,0.1-0.6,0.1-0.9,0.1C259.8,59.3,259.5,59.1,259.3,58.9z"/>
	<path class="st96" d="M381.8,256.2c0.2,0.5,0.5,0.9,0,1.4c-0.5,0.4-0.9,0.7-1.4,1.1c-1,1.9,0.2,4.1-0.8,6l-0.3,0.1l-0.3,0
		c-0.7-2.8-0.6-5.7,0-8.5C379.9,256.2,380.8,256.2,381.8,256.2z"/>
	<path class="st97" d="M101.2,211.4c-0.4,2-1.1,3.9-3.1,6.2c-0.1-3.6,1.9-5.6,2.4-8C101.8,209.7,101.5,210.6,101.2,211.4z"/>
	<path class="st98" d="M291.9,158.8c-0.5-0.6-1.4-0.8-1.5-1.8c0.8,0.5,1.5,0.1,2.3-0.1c2.6-0.6,3.9,0.3,3.3,3.4
		C294.7,159.5,293.9,157,291.9,158.8z"/>
	<path class="st99" d="M154.1,82.7c0,0.5,0,1,0,1.5c-0.2,0.2-0.5,0.4-0.7,0.6c-0.3,0.2-0.6,0.3-0.9,0.4c-1.5,0.3-2.7,2.4-4.5,0.8
		c0-0.7-0.2-1.4,0.4-1.9c1-1.6,2.8-1.4,4.3-1.5c0.2-0.2,0.5-0.3,0.8-0.3C153.7,82.4,153.9,82.5,154.1,82.7z"/>
	<path class="st100" d="M108.5,256.7c1.2-0.7,2.5-1.2,3.6,0.2c0.2,0.3,0.3,0.7,0.1,1.1c-0.5,2.2,0.6,4.6-0.8,6.7
		c-1.5-1.7-0.4-3.8-0.7-5.7c-0.2-1.2-0.5-1.5-1.5-0.8C108.4,257.9,108,257.5,108.5,256.7z"/>
	<path class="st101" d="M223.7,60.9c-0.3-3.5-3.1-1.5-5.4-2.4c2.3-1.5,4-1.8,6-0.4c1,0.8,0.4,1.8,0.4,2.7
		C224.4,61.1,224.1,61.2,223.7,60.9z"/>
	<path class="st102" d="M272.3,264.6c-1.9-2.1,0.5-5-1.5-7.1c-0.5-0.1-0.8-0.3-0.8-0.8c1.1-1.2,2,0.3,3,0.3c0.4,0.1,0.6,0.3,0.8,0.6
		c-0.3,0.6-0.5,1.2-0.8,1.8C272.1,261,273.2,262.9,272.3,264.6z"/>
	<path class="st103" d="M230.9,58.4c1.2-1.3,2.6-1.6,4.1-0.5c0.9,0.6,1.7,1.8,0.7,2.7c-1.1,1-1.1-0.6-1.6-1.1
		c-1.1-1.4-2.1-0.2-3.1,0.2C230.7,59.3,230.6,58.9,230.9,58.4z"/>
	<path class="st104" d="M148.4,11.1c-0.1-0.4-0.1-0.8-0.2-1.1c0.9-2,2.7-1.9,4.5-2.1c0.3-0.2,0.6-0.3,0.9-0.3
		c0.3,0.1,0.6,0.3,0.8,0.5c0.1,0.5,0.1,1-0.1,1.5c-0.2,0.3-0.4,0.5-0.7,0.7c-0.3,0.1-0.6,0.2-1,0.3C151.2,10.7,150,12.1,148.4,11.1z
		"/>
	<path class="st104" d="M400,259.1c-0.1-0.4-0.1-0.8-0.2-1.1c0.9-2,2.7-1.9,4.5-2.1c0.3-0.2,0.6-0.3,0.9-0.3
		c0.3,0.1,0.6,0.3,0.8,0.5c0.1,0.5,0.1,1-0.1,1.5c-0.2,0.3-0.4,0.5-0.7,0.7c-0.3,0.1-0.6,0.2-1,0.3
		C402.8,258.7,401.6,260.1,400,259.1z"/>
	<path class="st105" d="M271.5,190c-0.5,0-1.4-0.5-1.3-1.6c0.1-0.8,0.9-1.3,1.8-1.3c1.1,0,1.8,0.5,1.8,1.7
		C273.7,189.8,273,190.1,271.5,190z"/>
	<path class="st106" d="M466.6,264.6c0-4,0-8.1,0-12.1C467.8,256.5,467.8,260.6,466.6,264.6z"/>
	<path class="st107" d="M90.2,259.6c-0.2-0.5-0.4-1-0.6-1.5c1.1-1.5,2.6-2.5,4.8-3.6C93.6,257.4,91.2,257.9,90.2,259.6z"/>
	<path class="st108" d="M244.7,65.9c0-4,0-8.1,0-12.1C245.9,57.9,245.9,61.9,244.7,65.9z"/>
	<path class="st109" d="M245.5,264.6c0-4,0-8.1,0-12.1C246.6,256.5,246.6,260.6,245.5,264.6z"/>
	<path class="st110" d="M154.8,91.3c0-4,0-8.1,0-12.1C156,83.2,156,87.3,154.8,91.3z"/>
	<path class="st111" d="M154.1,9.5c0-0.5,0-1,0-1.5c-0.8-1.2-0.9-2.3,0-3.5c1.4,4,1.4,8,0,12.1c0-0.9-0.1-1.8-0.1-2.8
		C152.8,12.4,152.8,10.9,154.1,9.5z"/>
	<path class="st111" d="M405.7,257.5c0-0.5,0-1,0-1.5c-0.8-1.2-0.9-2.3,0-3.5c1.4,4,1.4,8,0,12.1c0-0.9-0.1-1.8-0.1-2.8
		C404.4,260.4,404.4,258.9,405.7,257.5z"/>
	<path class="st112" d="M230.9,58.4c0,0.4,0.1,0.8,0.1,1.3c-0.2,0.2-0.3,0.4-0.5,0.6c-1.6,1.7,0.1,3.9-1,5.6l-0.3,0.1l-0.3,0
		c-0.7-2.9-0.7-5.7,0-8.6C229.5,57.7,230.2,58.1,230.9,58.4z"/>
	<path class="st106" d="M204.8,41.3c0-4,0-8.1,0-12.1C206.1,33.2,206.1,37.3,204.8,41.3z"/>
	<path class="st113" d="M270.1,256.7c0.3,0.3,0.6,0.6,0.8,0.8c-0.3,0.4-0.5,0.8-0.8,1.2c-1,1.9,0.2,4.1-0.7,6
		c-2-2.6-0.9-5.4-0.6-8.2C269.2,256.5,269.6,256.6,270.1,256.7z"/>
	<path class="st114" d="M489.9,268.3c-1.3-4.1-1.3-8.2,0-12.2C490.8,260.2,491.5,264.2,489.9,268.3z"/>
	<path class="st115" d="M489.9,268.3c0-4.1,0-8.2,0-12.2c0.2,0.2,0.5,0.4,0.7,0.6c0,0.8,0,1.5,0,2.3c1.2,1.1,1,2.6,1,4.1
		c0,0.6-0.3,1.2-0.6,1.7c-0.3,1.1,0.3,2.4-0.5,3.5l-0.3,0.1L489.9,268.3z"/>
	<path class="st107" d="M90.2,209.6c-0.2-0.5-0.4-1-0.6-1.5c1.1-1.5,2.6-2.5,4.8-3.6C93.6,207.4,91.2,207.9,90.2,209.6z"/>
	<path class="st109" d="M245.5,165.3c0-4,0-8.1,0-12.1C246.6,157.2,246.6,161.2,245.5,165.3z"/>
	<path class="st107" d="M49.6,36.3c-0.2-0.5-0.4-1-0.6-1.5c1.1-1.5,2.6-2.5,4.8-3.6C53,34.1,50.6,34.6,49.6,36.3z"/>
	<path class="st107" d="M90.2,160.3c-0.2-0.5-0.4-1-0.6-1.5c1.4-1.1,2.7-2.3,4.1-3.4C93.6,158.1,91.2,158.6,90.2,160.3z"/>
	<path class="st116" d="M484.7,263.3c-0.3,1.1-0.9,1.6-1.8,1.4c-0.8-0.2-1.8-0.5-1.6-1.5c0.2-0.9,1.1-1.2,1.9-1.3
		C484.2,261.8,484.6,262.5,484.7,263.3z"/>
	<path class="st117" d="M218.6,189.9c-1.2-3.8-1.2-7.6,0-11.4C219.2,182.3,219.2,186.1,218.6,189.9z"/>
	<path class="st118" d="M449.8,258c0.3,0.4,0.6,0.7,0.9,1.1c1.4,1.1,1.8,2.4,0.8,4c-0.3,0.3-0.6,0.6-0.8,0.9
		C448.3,262.3,448.8,260.2,449.8,258z"/>
	<path class="st66" d="M218.6,189.9c0-3.8,0-7.6,0-11.4c0.2,0,0.5,0,0.7,0c0,3.8,0,7.6,0,11.4C219.1,189.9,218.9,189.9,218.6,189.9z
		"/>
	<path class="st119" d="M323,161.5c0.8-0.8,0.8-1.6,0-2.4c-0.3-0.5-0.2-0.9,0.1-1.3c3.6,2.6,3.6,2.6,0,5.1
		C322.8,162.5,322.7,162,323,161.5z"/>
	<path class="st119" d="M141.8,108.5c3.6,2.6,3.6,2.6,0,5.1c-0.3-0.4-0.4-0.9-0.1-1.3c0.8-0.8,0.8-1.6,0-2.4
		C141.4,109.3,141.5,108.9,141.8,108.5z"/>
	<path class="st108" d="M293.4,64.5c-1.8-3.5-0.3-7.2-0.8-10.7C294.2,57.3,292.8,61,293.4,64.5z"/>
	<path class="st120" d="M112.8,39.8c-1.6-3.5-0.3-7.1-0.7-10.6C113.7,32.6,112.3,36.3,112.8,39.8z"/>
	<path class="st120" d="M153.4,163.8c-1.6-3.5-0.3-7.1-0.7-10.6C154.3,156.6,152.9,160.3,153.4,163.8z"/>
	<path class="st121" d="M500.7,256.2c0,0.9,0.9,1.3,1.4,1.9c-0.2,0.3-0.5,0.5-0.7,0.8c-0.9,1.8,0.3,3.9-0.7,5.8l-0.3,0.1l-0.3,0
		c-0.7-2.9-0.7-5.7,0-8.6C500.3,256,500.5,256.1,500.7,256.2z"/>
	<path class="st120" d="M153.4,263.2c-1.6-3.5-0.3-7.1-0.7-10.6C154.3,256,152.9,259.6,153.4,263.2z"/>
	<path class="st122" d="M384,257.5c0-1,0.4-1.5,1.4-1.3c2.1,2.7,0.9,5.6,0.7,8.5c-1.5-1.3-0.4-3.1-0.7-4.6
		C385.3,258.9,385.7,257.5,384,257.5C384,257.4,384,257.5,384,257.5z"/>
	<path class="st108" d="M273.8,163.9c-1.8-3.5-0.3-7.2-0.8-10.7C274.6,156.6,273.3,160.3,273.8,163.9z"/>
	<path class="st123" d="M309.9,254.5c0.1-0.8-0.4-1.9,0.8-2c1.2-0.1,1.2,0.8,1.1,1.7c-0.1,0.9,0.3,2.3-0.8,2.4
		C309.5,256.7,310.2,255.2,309.9,254.5z"/>
	<path class="st124" d="M223.7,60.9c0.2,0,0.5,0,0.7,0c0.5,0.7,0.5,1.5,0,2.2c-0.3,0-0.5,0-0.8,0c-1.2,0.4-2.5,0.7-3.4-0.6
		c-0.3-0.3-0.5-0.5-0.8-0.8C220.7,61,222.2,61.2,223.7,60.9z"/>
	<path class="st123" d="M522.8,254.4c-0.3,0.8,0.3,2.2-1.1,2.1c-1.1-0.1-0.7-1.4-0.7-2.1c0-0.7-0.4-1.9,0.9-1.9
		C523.1,252.4,522.8,253.6,522.8,254.4z"/>
	<path class="st125" d="M108.5,256.7c0.2,0.5,0.5,1,0.7,1.5c-1.3,1.9,0.6,4.6-1.4,6.4c-0.6-2.8-0.6-5.6,0-8.4
		C108.1,256,108.4,256.3,108.5,256.7z"/>
	<path class="st126" d="M61.4,285.3c-0.5,1.4-1.1,2.7-1.6,4.1c-1.2-0.1-1-0.8-0.7-1.5c0.7-1.7,0.9-3.7,2.2-5.2
		C61.9,283.5,61.7,284.4,61.4,285.3z"/>
	<path class="st123" d="M311.8,155.1c-0.3,0.7,0.3,2.2-1.1,2.1c-1.2-0.1-0.7-1.5-0.7-2.4c-0.1-0.7-0.3-1.8,1.1-1.7
		C312.2,153.3,311.7,154.4,311.8,155.1z"/>
	<path class="st123" d="M211,31.1c-0.3,0.7,0.3,2.2-1.1,2.1c-1.3-0.1-0.7-1.5-0.8-2.3c-0.1-0.7-0.3-1.8,1-1.7
		C211.4,29.3,211,30.3,211,31.1z"/>
	<path class="st94" d="M61.4,285.3c0-0.9-0.1-1.7-0.1-2.6c0.5-1.2,0.9-2.4,1.4-3.5c0.8-0.2,1.2,0.1,1,0.9
		C63,281.9,62.5,283.7,61.4,285.3z"/>
	<path class="st127" d="M130.2,180c0.2-0.1,0.4-0.1,0.7-0.1c0.8,3.3,0.6,6.7,0.1,10C129.4,186.7,130.6,183.3,130.2,180z"/>
	<path class="st128" d="M132.4,189.9c0.4-3.3-0.8-6.7,0.7-9.9C132.7,183.3,133.9,186.7,132.4,189.9z"/>
	<path class="st129" d="M130.9,189.9c0-3.3-0.1-6.7-0.1-10c1.6,3.2,0.4,6.7,0.8,10C131.4,189.9,131.2,189.9,130.9,189.9z"/>
	<path class="st130" d="M283.1,163.9c0.5,0.3,1,0.5,1.5,0.8c-1.7,0.3-3.5,1.8-5.1-0.4c-0.2-0.5-0.4-1.1-0.2-1.7c0.3-0.3,0.6-0.3,1,0
		C280.9,163.7,281.8,164.1,283.1,163.9z"/>
	<path class="st123" d="M200.9,55.8c-0.3,0.7,0.3,2.2-1.1,2.1c-1.2-0.1-0.7-1.5-0.7-2.4c-0.1-0.7-0.3-1.8,1.1-1.7
		C201.3,54,200.8,55,200.9,55.8z"/>
	<path class="st131" d="M109.8,30.6c1.3,3.1,1.2,6.1,0,9.2C109.9,36.8,109.9,33.7,109.8,30.6z"/>
	<path class="st132" d="M386.2,264.6c-0.3-2.8,0.6-5.7-0.7-8.5C387.5,257.9,387.9,261.6,386.2,264.6z"/>
	<path class="st133" d="M464.4,262.5c0.2,0.5,0.5,1.1,0.7,1.6c-1.8,0.3-3.7,1.6-5.1-0.8c0.4-0.3,0.7-0.6,1.1-0.9
		C462.2,261.8,463.3,261.7,464.4,262.5z"/>
	<path class="st134" d="M261.7,63.8c0.7,1.2,2.5,0.3,3.6,2c-1.9,0.3-3.4,0.9-4.6-1c-0.3-0.3-0.3-0.7,0-1
		C261,63.5,261.4,63.5,261.7,63.8z"/>
	<path class="st135" d="M533.4,260.7c0,1.3-0.6,2.3-1.3,3.3c-0.5,0.2-0.9,0.2-1.3-0.1c0.8-1.8,1.6-3.6,2.4-5.4
		C533.8,259.3,533.7,260,533.4,260.7z"/>
	<path class="st136" d="M251.2,179.2c1.2,3.1,1.2,6.2,0,9.3C251.2,185.4,251.2,182.3,251.2,179.2z"/>
	<path class="st131" d="M150.5,154.6c1.3,3.1,1.2,6.1,0,9.2C150.5,160.7,150.5,157.7,150.5,154.6z"/>
	<path class="st131" d="M150.5,253.9c1.3,3.1,1.2,6.1,0,9.2C150.5,260.1,150.5,257,150.5,253.9z"/>
	<path class="st133" d="M202.7,39.1c0.2,0.5,0.5,1.1,0.7,1.6c-1.8,0.3-3.7,1.6-5.1-0.8c0.4-0.3,0.7-0.6,1.1-0.9
		C200.4,38.4,201.6,38.4,202.7,39.1z"/>
	<path class="st137" d="M109.9,8.7c-2.1-1.5-2.3-2.9,0.1-4.2C110.3,5.9,110.5,7.3,109.9,8.7z"/>
	<path class="st138" d="M370.9,251.7c1,2.2,0.9,3.5,0.2,5.5C370,255.3,370,254,370.9,251.7z"/>
	<path class="st8" d="M113.5,8.6c-2-1.5-2-2.8,0-4.1C114,5.9,114.1,7.3,113.5,8.6z"/>
	<path class="st139" d="M375.2,256.5c-2-1.3-1.9-2.7,0-4C375.8,253.9,375.9,255.2,375.2,256.5z"/>
	<path class="st140" d="M159.9,33.8c-1-1.7-1-3.1-0.5-4.3c0.2-0.5,1-0.4,1.1,0.1C161,30.9,160.9,32.1,159.9,33.8z"/>
	<path class="st137" d="M170,8.7c-2.1-1.5-2.3-2.9,0.1-4.2C170.5,5.9,170.7,7.3,170,8.7z"/>
	<path class="st8" d="M173.7,8.6c-2-1.5-2-2.8,0-4.1C174.2,5.9,174.3,7.3,173.7,8.6z"/>
	<path class="st114" d="M138.2,16.7c-1.2-2.9-1.2-5.7,0-8.6C138.3,11,140.4,13.8,138.2,16.7z"/>
	<path class="st115" d="M138.2,16.7c0-2.9,0-5.7,0-8.6c0.2,0,0.4,0,0.6,0.1c0,0.9,0.1,1.8,0.1,2.8c1,1.9,1.1,3.8,0,5.7l-0.3,0.1
		L138.2,16.7z"/>
	<path class="st140" d="M200.5,257.2c-1-1.9-1.1-3.1-0.5-4.5c0.1-0.1,0.8-0.2,0.9,0C201.7,254,201.5,255.3,200.5,257.2z"/>
	<path class="st141" d="M235.2,189.9c0-2.8,0-5.6,0-8.4C236.4,184.3,236.4,187.1,235.2,189.9z"/>
	<path class="st8" d="M314.3,57.9c-2-1.5-2-2.8,0-4.1C314.9,55.2,314.9,56.6,314.3,57.9z"/>
	<path class="st127" d="M200.5,180c0.2-0.1,0.4-0.1,0.7-0.1c0.7,2.9,0.7,5.7,0,8.6l-0.3,0c0,0-0.3-0.1-0.3-0.1
		C200.5,185.7,200.5,182.8,200.5,180z"/>
	<path class="st142" d="M107.7,256.2c0,2.8,0,5.6,0,8.4C106.5,261.8,106.5,259,107.7,256.2z"/>
	<path class="st143" d="M500,256.1c0,2.9,0,5.7,0,8.6C498.8,261.8,498.8,258.9,500,256.1z"/>
	<path class="st137" d="M310.7,58c-2-1.9-2-3,0.1-4.2C311.2,55.2,311.4,56.6,310.7,58z"/>
	<path class="st144" d="M101.7,206.4c1.1-1.8,1.7-2.9,2.5-4.4C104.5,204.8,104.5,204.8,101.7,206.4z"/>
	<path class="st145" d="M204.1,256.7c-1.9-1.7-1.8-3.1,0.1-4.2C204.6,253.9,204.7,255.3,204.1,256.7z"/>
	<path class="st146" d="M121.5,202.3c0.8,0.1,1.5,0.3,1.3,1.3c-0.2,0.9-0.9,1-1.7,1c-0.7,0-1.1-0.4-1.1-1.1
		C120,202.4,120.7,202.3,121.5,202.3z"/>
	<path class="st146" d="M111.3,155.2c-0.8,0.1-1.4-0.2-1.4-1.2c0-0.8,0.5-1.1,1.1-1.1c0.7,0,1.6,0,1.6,1
		C112.7,154.9,112.1,155.2,111.3,155.2z"/>
	<path class="st147" d="M339.7,256.1c0,2.8,0,5.7,0,8.5C338.5,261.8,338.5,259,339.7,256.1z"/>
	<path class="st145" d="M204.1,157.3c-1.9-1.7-1.8-3.1,0.1-4.2C204.6,154.5,204.7,155.9,204.1,157.3z"/>
	<path class="st128" d="M203.4,188.5c-1.2-2.8-1.2-5.6,0-8.5C203.4,182.8,203.4,185.7,203.4,188.5z"/>
	<path class="st148" d="M158.5,181.4c0,2.8,0,5.7,0,8.5C157.3,187.1,157.3,184.3,158.5,181.4z"/>
	<path class="st149" d="M101.2,111.7c-0.3-0.3-0.6-0.6-0.9-0.9c0.2-1.4,0.3-2.8,2.1-3.5C102.9,109.2,101.8,110.4,101.2,111.7z"/>
	<path class="st145" d="M163.5,33.4c-1.9-1.7-1.8-3.1,0.1-4.2C164,30.6,164.1,32,163.5,33.4z"/>
	<path class="st143" d="M228.9,57.4c0,2.9,0,5.7,0,8.6C227.6,63.1,227.6,60.3,228.9,57.4z"/>
	<path class="st150" d="M111.3,264.6c0.3-2.4-0.7-4.9,0.7-7.1c0.4-0.3,0.7-0.3,0.9,0.1c-0.1,0.4-0.2,0.8-0.3,1.2
		c-0.8,1.9,0.3,4-0.7,5.9l-0.3,0L111.3,264.6z"/>
	<path class="st94" d="M533.4,260.7c-0.1-0.7-0.1-1.4-0.2-2.2c0.1-1.3,0.6-2.4,1.4-3.4c0.6,0,0.7,0.5,0.9,0.8
		C535.1,257.7,534.5,259.3,533.4,260.7z"/>
	<path class="st140" d="M200.5,157.8c-1.1-1.7-1-3-0.6-4.3c0.2-0.5,1-0.4,1.1,0.1C201.6,154.8,201.5,156.1,200.5,157.8z"/>
	<path class="st146" d="M70.3,31.2c-0.7,0-1-0.3-1.1-1c-0.1-1,0.6-1.2,1.4-1.2c0.8,0,1.5,0.2,1.4,1.2C71.9,31.1,71.2,31.3,70.3,31.2
		z"/>
	<path class="st151" d="M378.9,256.1c0,2.8,0,5.7,0,8.5C377.7,261.8,377.8,259,378.9,256.1z"/>
	<path class="st152" d="M490.6,264.7c0-0.5,0-1,0-1.5c0.3-0.3,0.6-0.5,0.9-0.7c0.9-0.4,1.9-0.4,2.8,0.1c0.5,0.3,0.8,0.8,1,1.4
		c-1.1,1.1-2.5,0.5-3.7,0.8C491.2,265.3,490.8,265.2,490.6,264.7z"/>
	<path class="st153" d="M323.1,157.8c0,0.4-0.1,0.9-0.1,1.3c-1.2-0.9-2.6-1.5-3.4-3.2C321.6,155.3,322.1,157,323.1,157.8z"/>
	<path class="st154" d="M141.7,112.2c0,0.4,0.1,0.9,0.1,1.3c-0.9,0.9-1.6,2-3.4,2.2C138.9,113.7,140.5,113.2,141.7,112.2z"/>
	<path class="st155" d="M144.6,183.5c0-0.4,0-0.9,0-1.3c0.3,0.4,0.6,0.7,0.8,1.1c0.4,2.2,0.5,4.5-0.1,6.7c-0.2,0-0.5,0-0.7,0
		C143.6,187.8,143.6,185.7,144.6,183.5z"/>
	<path class="st154" d="M323,161.5c0,0.4,0.1,0.9,0.1,1.3c-0.9,0.9-1.6,2-3.4,2.2C320.2,163,321.8,162.5,323,161.5z"/>
	<path class="st156" d="M275.8,256.3c1.6,2.8,1.6,5.5,0.1,8.3c-1.4-2.3-0.5-4.8-0.7-7.1C275.3,257,275.5,256.6,275.8,256.3z"/>
	<path class="st157" d="M115,256.6c1.1,2.7,1.2,5.4,0,8c-0.7-2-0.2-4.2-0.4-6.3C114.6,257.7,114.4,257.1,115,256.6z"/>
	<path class="st158" d="M224.4,63.2c0-0.7,0-1.5,0-2.2c0-0.9-0.1-1.9-0.1-2.8c1.6,2.5,1.7,5.1,0.2,7.8
		C224.5,65,224.4,64.1,224.4,63.2z"/>
	<path class="st159" d="M153.1,178.5c0,0.9-0.4,1.4-1.3,1.4c-0.8,0-1.6-0.4-1.7-1c-0.1-0.7,0.7-1.1,1.4-1.2
		C152.2,177.5,152.8,177.8,153.1,178.5z"/>
	<path class="st153" d="M141.8,108.5c0,0.4-0.1,0.9-0.1,1.3c-1.2-0.9-2.3-1.8-3.9-3.1C140.3,106,140.9,107.7,141.8,108.5z"/>
	<path class="st160" d="M506.5,264.7c0-2.5,0-5,0-7.6C507.6,259.6,507.8,262.1,506.5,264.7z"/>
	<path class="st161" d="M62.2,5.3c0,0.6-0.1,1.2-0.9,1.3c-1,0.1-1.7-0.3-2-1.1c-0.1-0.2,0.8-0.9,1.3-1C61.3,4.2,62,4.3,62.2,5.3z"/>
	<path class="st162" d="M184.6,41.3c0-2.5,0-5,0-7.5C185.7,36.3,185.8,38.8,184.6,41.3z"/>
	<path class="st163" d="M83.1,287.8c-1.6-2.2-0.3-4.8-0.8-7.1C83.8,282.9,82.7,285.4,83.1,287.8z"/>
	<path class="st164" d="M59,287.8c0.2,0.5,0.5,1,0.7,1.5c-0.4,1.1-0.4,2.5-2.6,2C57.8,290.1,58.4,289,59,287.8z"/>
	<path class="st163" d="M32.3,15.2c-1.6-2.2-0.3-4.8-0.8-7.1C33.1,10.3,31.9,12.8,32.3,15.2z"/>
	<path class="st165" d="M134.5,16.6c0-2.5,0-5,0-7.5C135.6,11.6,135.8,14.1,134.5,16.6z"/>
	<path class="st162" d="M225.2,165.3c0-2.5,0-5,0-7.5C226.3,160.3,226.4,162.8,225.2,165.3z"/>
	<path class="st166" d="M241.9,179.8c-0.6-0.2-1.4-0.4-1.3-1.2c0.1-0.7,0.9-1.1,1.7-1c0.7,0,1.1,0.5,1.1,1.1
		C243.4,179.6,242.9,180,241.9,179.8z"/>
	<path class="st167" d="M279.6,162.5c0,0.6-0.1,1.2-0.1,1.8c-0.3-0.3-0.5-0.7-0.8-1c-0.3-2.2-0.6-4.4,0.2-6.5c0.2,0,0.4,0,0.7,0.1
		C280.1,158.7,280.1,160.6,279.6,162.5z"/>
	<path class="st128" d="M153.4,188.5c-1.6-2.2-0.4-4.7-0.7-7C154.2,183.7,153,186.1,153.4,188.5z"/>
	<path class="st168" d="M228.8,181.5c0,2.4,0,4.8,0,7.2C227.7,186.3,227.6,183.9,228.8,181.5z"/>
	<path class="st169" d="M243.6,188.6c-2-2.1-0.5-4.8-1.1-7.1C244.8,183.5,242.7,186.3,243.6,188.6z"/>
	<path class="st170" d="M165,189.9c0-2.3,0-4.6,0-6.9C166,185.3,166.1,187.6,165,189.9z"/>
	<path class="st171" d="M120.9,103.7c0.7,0,1.2,0.1,1.3,0.9c0.1,0.9-0.3,1.5-1.2,1.3c-0.5-0.1-1.3-0.5-1.4-0.9
		C119.4,104.1,120.3,103.9,120.9,103.7z"/>
	<path class="st172" d="M535.5,256c-0.3-0.3-0.6-0.6-0.9-0.8c0.2-1.1,0.1-2.5,2-2.6C536.9,253.9,536.1,254.9,535.5,256z"/>
	<path class="st171" d="M102.6,253c0.1,1-0.2,1.5-0.9,1.6c-0.8,0.1-1.6-0.3-1.7-1c-0.1-0.8,0.7-1.1,1.4-1.2
		C102.1,252.3,102.5,252.6,102.6,253z"/>
	<path class="st173" d="M273.2,64.5c-1.8-2.2-0.5-4.7-0.9-7.1C274,59.6,272.6,62.2,273.2,64.5z"/>
	<path class="st174" d="M434.8,257c-0.2,1.1-0.5,2.2-1.5,2.9c-0.6-0.4-0.3-1.1-0.5-1.6c0.4-0.9,0.3-2,1.2-2.7
		c0.2-0.5,0.5-0.5,0.9-0.3C435.1,255.8,435.1,256.4,434.8,257z"/>
	<path class="st108" d="M263.6,263.2c-1.5-2.2-0.4-4.7-0.8-7.1C264.4,258.4,263.2,260.9,263.6,263.2z"/>
	<path class="st108" d="M414.5,263.2c-1.5-2.2-0.4-4.7-0.8-7.1C415.2,258.4,414,260.9,414.5,263.2z"/>
	<path class="st163" d="M112.8,64.5c-1.6-2.2-0.3-4.8-0.8-7.1C113.6,59.6,112.4,62.1,112.8,64.5z"/>
	<path class="st162" d="M225.2,264.6c0-2.5,0-5,0-7.5C226.3,259.6,226.4,262.1,225.2,264.6z"/>
	<path class="st175" d="M275.3,264.7c-1.6-2.2-0.5-4.7-0.8-7c0.4-0.4,0.7-0.3,1,0.1C275.5,260.1,275.9,262.4,275.3,264.7z"/>
	<path class="st176" d="M275.3,264.7c-0.1-2.4-0.1-4.8-0.2-7.1c0.2-0.3,0.5-0.3,0.7,0c0,2.4,0.1,4.7,0.1,7.1c0,0-0.3,0.1-0.3,0.1
		L275.3,264.7z"/>
	<path class="st162" d="M285.4,264.6c0-2.5,0-5,0-7.5C286.5,259.6,286.6,262.1,285.4,264.6z"/>
	<path class="st162" d="M426,264.6c0-2.5,0-5,0-7.5C427.1,259.6,427.2,262.1,426,264.6z"/>
	<path class="st177" d="M31.7,5.6c-0.1,0.7-0.5,1-1.2,1c-0.9,0-1.3-0.5-1.1-1.3c0.1-0.7,0.7-0.9,1.3-0.9C31.4,4.4,31.7,4.9,31.7,5.6
		z"/>
	<path class="st178" d="M314.3,157.3c-1.5-2.4-1.5-2.9,0.1-4.2C314.9,154.5,315,155.9,314.3,157.3z"/>
	<path class="st178" d="M213.5,33.3c-1.1-1.4-2.1-2.8,0.1-4.2C214.1,30.6,214.2,32,213.5,33.3z"/>
	<path class="st177" d="M81.4,277c0.7,0,1.1,0.5,1.1,1.1c0,0.8-0.6,1.2-1.4,1.1c-0.8-0.1-0.9-0.6-0.9-1.2
		C80.2,277.3,80.7,277,81.4,277z"/>
	<path class="st179" d="M114.9,258.2c0,2.1,0,4.3,0,6.4c-1.8-2-0.5-4.3-0.7-6.5C114.5,257.8,114.7,257.9,114.9,258.2z"/>
	<path class="st178" d="M203.4,58c-1.5-2.4-1.5-2.9,0.1-4.2C204,55.2,204,56.6,203.4,58z"/>
	<path class="st180" d="M530.8,264c0.4,0,0.9,0.1,1.3,0.1c-0.3,1.1-0.3,2.4-1.9,2.7C529.6,265.7,530.4,264.8,530.8,264z"/>
	<path class="st141" d="M230.2,188c-1.3-2.1-0.4-4.4-0.7-6.6C231.1,183.5,229.9,185.8,230.2,188z"/>
	<path class="st181" d="M180.9,13.7c0.3,0.3,0.5,0.6,0.8,0.9c-0.9,0.9-1.6,2.4-3.6,1.2C179.1,15,180,14.4,180.9,13.7z"/>
	<path class="st182" d="M278.9,156.7c-0.1,2.2-0.1,4.3-0.2,6.5C277.8,161,277.6,158.9,278.9,156.7z"/>
	<path class="st177" d="M111.1,55.9c-0.7,0.1-1.2-0.2-1.2-0.9c0-0.6,0.2-1.1,0.9-1.3c0.9-0.2,1.4,0.2,1.4,1.1
		C112.2,55.4,111.8,55.9,111.1,55.9z"/>
	<path class="st178" d="M314.3,256.7c-1.1-1.4-2.1-2.8,0.1-4.2C314.9,253.9,315,255.3,314.3,256.7z"/>
	<path class="st183" d="M103.4,103.9c0.6,0,1,0.2,0.8,0.8c-0.2,0.6-0.5,1.3-1,1.7c-0.4,0.4-0.9-0.2-0.9-0.6
		C102.2,104.9,102.7,104.3,103.4,103.9z"/>
	<path class="st184" d="M163.5,183.6c1.6,1.9,0.4,4.2,0.8,6.3C162.6,188,164.1,185.7,163.5,183.6z"/>
	<path class="st185" d="M145.4,189.9c0-2.2,0-4.4,0.1-6.7C146.4,185.5,146.7,187.7,145.4,189.9z"/>
	<path class="st186" d="M144.6,183.5c0,2.1,0,4.3,0,6.4c-0.2,0-0.5,0-0.7,0c-0.6-2.1-0.5-4.3,0-6.4
		C144.2,183.5,144.4,183.5,144.6,183.5z"/>
	<path class="st187" d="M148.3,84.1c0,0.8,0,1.6,0,2.4c0.6,0.6,0.6,1.2,0,1.8c0.1,0.8,0.1,1.6,0.2,2.4c-1.1,0-0.8-0.8-1-1.4
		c-0.5-1.2-0.5-2.5,0-3.7C147.6,84.9,147.5,84.3,148.3,84.1z"/>
	<path class="st178" d="M525.3,256.7c-1.1-1.4-2.1-2.8,0.1-4.2C525.9,253.9,526,255.3,525.3,256.7z"/>
	<path class="st188" d="M143.9,183.5c0,2.1,0,4.3,0,6.4c-1.5-2.1-0.4-4.4-0.7-6.6C143.5,183.3,143.7,183.4,143.9,183.5z"/>
	<path class="st142" d="M110.6,158.2c1.1,1.9,1.1,3.7,0,5.6C110.6,162,110.6,160.1,110.6,158.2z"/>
	<path class="st149" d="M101.2,211.4c-0.2-0.6-0.5-1.2-0.7-1.8c0.2-1,1-1.4,2-1.9C102.7,209.3,102,210.3,101.2,211.4z"/>
	<path class="st189" d="M139.7,11c0.2-0.1,0.5-0.2,0.7-0.2c-0.5,1.9,0.7,4.1-0.8,5.9C139.1,14.7,138.9,12.8,139.7,11z"/>
	<path class="st190" d="M189.7,41.3c0.3-1.9-0.8-4,0.8-5.8C189.9,37.4,191.1,39.5,189.7,41.3z"/>
	<path class="st191" d="M120,108.9c1.1,1.9,1.1,3.7,0,5.6C120,112.7,120,110.8,120,108.9z"/>
	<path class="st192" d="M139.7,11c0,1.9-0.1,3.8-0.1,5.7c0,0-0.3,0.1-0.3,0.1s-0.3-0.1-0.3-0.1c0-1.9,0-3.8,0-5.7
		C139.2,11,139.5,11,139.7,11z"/>
	<path class="st190" d="M230.3,165.3c0.3-1.9-0.8-4,0.8-5.8C230.5,161.4,231.7,163.5,230.3,165.3z"/>
	<path class="st193" d="M63.6,280.1c-0.3-0.3-0.7-0.6-1-0.9c0.3-0.9,0.5-1.9,1.8-2C64.9,278.4,64.2,279.2,63.6,280.1z"/>
	<path class="st111" d="M229.5,65.9c0.4-1.9-0.8-4,1-5.6C229.9,62.1,231.4,64.3,229.5,65.9z"/>
	<path class="st142" d="M70,34.3c1.1,1.9,1.1,3.7,0,5.6C70,38,70,36.1,70,34.3z"/>
	<path class="st194" d="M59.8,9.6c1.2,1.8,1.2,3.7,0,5.5C59.8,13.3,59.8,11.5,59.8,9.6z"/>
	<path class="st195" d="M173,187c-0.5-0.4-1-0.8-1.4-1.2c0.3-1.2,1.1-1.6,2.3-1.6c0.2,0.3,0.5,0.6,0.7,0.9
		C174.5,186.1,174.2,187,173,187z"/>
	<path class="st196" d="M139.6,189.9c0.4-2-0.8-4.2,0.8-6C139.9,185.9,141.2,188.1,139.6,189.9z"/>
	<path class="st191" d="M100.4,257.6c1.1,1.9,1.1,3.7,0,5.6C100.4,261.3,100.4,259.4,100.4,257.6z"/>
	<path class="st142" d="M120.7,207.6c1.1,1.9,1.1,3.7,0,5.6C120.7,211.3,120.7,209.4,120.7,207.6z"/>
	<path class="st197" d="M114.9,258.2c-0.2,0-0.5,0-0.7-0.1c-0.4-0.2-0.8-0.4-1.2-0.6c-0.3,0-0.6-0.1-0.9-0.1c0-0.2,0-0.4,0-0.6
		c0.9-0.5,1.8-1.6,2.9-0.3C115,257.1,114.9,257.7,114.9,258.2z"/>
	<path class="st198" d="M260.8,63.8c0,0.3-0.1,0.6-0.1,0.9c-0.3-0.3-0.5-0.6-0.8-0.9c-0.4-1.7-0.4-3.3,0-5c0.3,0,0.5,0,0.8,0
		C261.4,60.5,261.1,62.2,260.8,63.8z"/>
	<path class="st136" d="M259.9,182.9c1.6,1.8,0.3,4,0.8,6C259.2,187.1,260.3,184.9,259.9,182.9z"/>
	<path class="st117" d="M241.1,182.9c1.1,1.9,1.1,3.7,0,5.6C241.1,186.6,241.1,184.8,241.1,182.9z"/>
	<path class="st127" d="M150.5,182.9c1.2,1.9,1.2,3.7,0,5.6C150.5,186.6,150.5,184.8,150.5,182.9z"/>
	<path class="st199" d="M234.6,181.5c-0.3,1.9,0.7,3.9-0.7,5.6C234.3,185.2,233.1,183.2,234.6,181.5z"/>
	<path class="st200" d="M112,264.7c0.4-1.9-0.6-4,0.7-5.9C112.5,260.8,113.5,262.8,112,264.7z"/>
	<path class="st190" d="M230.3,264.6c0.3-1.9-0.8-4,0.8-5.8C230.5,260.7,231.7,262.9,230.3,264.6z"/>
	<path class="st201" d="M269.4,264.6c0.3-2-0.6-4.1,0.7-6C269.8,260.6,270.9,262.8,269.4,264.6z"/>
	<path class="st190" d="M379.6,264.6c0.2-2-0.6-4.2,0.8-6C379.9,260.6,381.2,262.8,379.6,264.6z"/>
	<path class="st201" d="M383.3,264.6c0.3-2-0.6-4.1,0.7-5.9C383.6,260.6,384.7,262.8,383.3,264.6z"/>
	<path class="st202" d="M500.7,264.6c0.2-1.9-0.6-4,0.7-5.8C501.2,260.8,502.4,262.9,500.7,264.6z"/>
	<path class="st111" d="M279.6,162.5c0-1.9,0-3.8,0-5.7c1.8,1.7,0.5,3.9,0.7,5.8C280.1,162.5,279.8,162.5,279.6,162.5z"/>
	<path class="st151" d="M284.7,156.8c-0.4,1.9,0.6,4.1-0.7,5.9C284.2,160.7,283.2,158.6,284.7,156.8z"/>
	<path class="st182" d="M259.9,58.9c0,1.7,0,3.3,0,5c-1.1-1.5-0.5-3.3-0.6-5C259.5,58.8,259.7,58.8,259.9,58.9z"/>
	<path class="st192" d="M260.8,63.8c0-1.7-0.1-3.4-0.1-5c0.4,0,0.7,0,1.1,0c0,1.6,0,3.3-0.1,4.9C261.4,63.8,261.1,63.8,260.8,63.8z"
		/>
	<path class="st203" d="M299.1,59.3c0,1.7,0.1,3.5,0.1,5.2C297.9,62.8,297.9,61.1,299.1,59.3z"/>
	<path class="st202" d="M281.9,63.9c-1.4-1.7-1.5-3.3,0-5C281.9,60.5,281.9,62.2,281.9,63.9z"/>
	<path class="st204" d="M275.8,257.5l-0.4,0c0,0-0.4,0-0.4,0c0,0-0.3,0-0.3,0s-0.3,0.1-0.3,0.1c-0.2-0.1-0.4-0.1-0.6-0.1
		c-0.3-0.2-0.5-0.4-0.8-0.6c0.9-0.5,1.6-1.4,2.7-0.6C275.8,256.7,275.8,257.1,275.8,257.5z"/>
	<path class="st205" d="M301.3,58.7c0-0.4,0-0.8,0-1.3c1.1-0.1,2.2-0.4,3,0.5c-0.3,0.3-0.6,0.6-0.9,1
		C302.6,59.5,301.9,59.4,301.3,58.7z"/>
	<path class="st205" d="M472.4,257.4c0-0.4,0-0.8,0-1.3c1.1-0.1,2.2-0.4,3,0.5c-0.3,0.3-0.6,0.6-0.9,1
		C473.8,258.1,473.1,258.1,472.4,257.4z"/>
	<path class="st206" d="M272.3,264.6c0.1-1.8-0.4-3.6,0.7-5.2C273.1,261.1,274.2,263.1,272.3,264.6z"/>
	<path class="st203" d="M470.2,258c0,1.7,0.1,3.5,0.1,5.2C469,261.5,469.1,259.7,470.2,258z"/>
	<path class="st207" d="M265.8,163.6c0-1.9,0-3.8,0-5.7C266.9,159.7,266.9,161.7,265.8,163.6z"/>
	<path class="st208" d="M431.8,263.3c0.2,0.9,0.1,2-0.7,2.5c-1.1,0.7-1.7,0.3-1.1-1C430.9,264.7,430.5,262.9,431.8,263.3z"/>
	<path class="st209" d="M300.6,157.4c-1.5-1.2-0.4-2.8-0.8-4.2C301.4,154.3,300.4,156,300.6,157.4z"/>
	<path class="st210" d="M314.3,256.7c0-1.4,0-2.8,0.1-4.2C315.9,253.9,315.5,255.3,314.3,256.7z"/>
	<path class="st210" d="M525.3,256.7c0-1.4,0-2.8,0.1-4.2C526.9,253.9,526.5,255.3,525.3,256.7z"/>
	<path class="st211" d="M262.9,253.6c-0.1,0.4-0.1,1-0.8,0.8c-0.6-0.1-0.8-0.6-0.7-1c0-0.5,0.3-0.9,0.9-0.9
		C262.8,252.6,262.9,253.1,262.9,253.6z"/>
	<path class="st212" d="M310.7,58c0-1.4,0.1-2.8,0.1-4.2C311.9,55.2,311.8,56.6,310.7,58z"/>
	<path class="st108" d="M204.1,256.7c0-1.4,0.1-2.8,0.1-4.2C205.4,253.9,205.3,255.3,204.1,256.7z"/>
	<path class="st213" d="M137.3,84.9c0,1.5,0.1,3,0.1,4.5C136.3,87.9,136.4,86.4,137.3,84.9z"/>
	<path class="st210" d="M314.3,157.3c0-1.4,0-2.8,0.1-4.2C315.9,154.6,315.5,155.9,314.3,157.3z"/>
	<path class="st214" d="M434.8,257c0-0.6,0-1.1-0.1-1.7c0-1.1,0.1-2.1,1.5-2.3C436.5,254.5,435.5,255.7,434.8,257z"/>
	<path class="st215" d="M314.3,57.9c0-1.4,0-2.7,0-4.1C315.5,55.2,315.4,56.6,314.3,57.9z"/>
	<path class="st212" d="M109.9,8.7c0-1.4,0.1-2.8,0.1-4.2C111,5.9,111,7.3,109.9,8.7z"/>
	<path class="st216" d="M432.8,258.2c0.2,0.5,0.3,1.1,0.5,1.6c-0.7,0.6-0.4,1.8-1.4,2.2c-0.4-0.3-0.5-0.7-0.1-1.1
		C432.1,260,432.4,259.1,432.8,258.2z"/>
	<path class="st215" d="M113.5,8.6c0-1.4,0-2.7,0-4.1C114.7,5.9,114.6,7.3,113.5,8.6z"/>
	<path class="st217" d="M431.8,260.9c0,0.4,0.1,0.7,0.1,1.1c0,0.4-0.1,0.8-0.1,1.2c-0.6,0.5-1.2,1-1.8,1.4
		C430.6,263.5,431.2,262.2,431.8,260.9z"/>
	<path class="st218" d="M496.9,262.5c0.1-1.5,0.1-3.1,0.2-4.6C498,259.4,498.4,261,496.9,262.5z"/>
	<path class="st128" d="M140.2,181.9c-1.2-1.2-0.3-2.7-0.6-4C141,179,140.1,180.5,140.2,181.9z"/>
	<path class="st108" d="M204.1,157.3c0-1.4,0.1-2.8,0.1-4.2C205.4,154.6,205.3,156,204.1,157.3z"/>
	<path class="st219" d="M375.2,256.5c0-1.3,0-2.6,0-4C376.3,253.9,375.9,255.2,375.2,256.5z"/>
	<path class="st220" d="M436.2,252.9c-0.5,0.8-1,1.6-1.5,2.3c-0.2,0.1-0.5,0.2-0.7,0.3C434.7,254.6,433.7,252.3,436.2,252.9z"/>
	<path class="st221" d="M271.8,55.8c-0.6,0-0.9-0.3-0.9-0.8c-0.1-0.5,0.1-1,0.6-1.1c0.6-0.1,0.8,0.3,0.9,0.8
		C272.4,55.1,272.3,55.6,271.8,55.8z"/>
	<path class="st222" d="M17,10.3c0,1.6,0,3.1,0,4.7C15.9,13.4,16,11.8,17,10.3z"/>
	<path class="st211" d="M413.1,254.4c-0.6,0-0.8-0.3-0.9-0.8c-0.1-0.5,0.1-0.9,0.6-1.1c0.6-0.1,0.8,0.3,0.9,0.8
		C413.7,253.8,413.7,254.2,413.1,254.4z"/>
	<path class="st215" d="M173.7,8.6c0-1.4,0-2.7,0-4.1C174.9,5.9,174.8,7.3,173.7,8.6z"/>
	<path class="st210" d="M213.5,33.3c0-1.4,0-2.8,0.1-4.2C215.1,30.6,214.7,32,213.5,33.3z"/>
	<path class="st108" d="M163.5,33.4c0-1.4,0.1-2.8,0.1-4.2C164.8,30.6,164.7,32,163.5,33.4z"/>
	<path class="st212" d="M170,8.7c0-1.4,0.1-2.8,0.1-4.2C171.2,5.9,171.2,7.3,170,8.7z"/>
	<path class="st222" d="M67.8,282.9c0,1.6,0,3.1,0,4.7C66.7,286,66.7,284.5,67.8,282.9z"/>
	<path class="st210" d="M203.4,58c0-1.4,0-2.8,0.1-4.2C205,55.2,204.6,56.6,203.4,58z"/>
	<path class="st111" d="M490.6,264.7c0.3,0,0.6,0.1,0.9,0.1c-0.4,1.1,0.7,2.6-0.9,3.4C490.6,267.1,490.6,265.9,490.6,264.7z"/>
	<path class="st127" d="M153.3,82.7l-0.3,0c0,0-0.3-0.1-0.3-0.1c0.2-1.1-0.5-2.5,0.8-3.4C153.8,80.4,154.1,81.5,153.3,82.7z"/>
	<path class="st142" d="M113.5,103.9c-0.3,1.1,0.6,2.5-0.7,3.4C113.1,106.1,112.1,104.7,113.5,103.9z"/>
	<path class="st223" d="M147.5,85.5c0,1.3,0,2.5,0,3.7C146.5,88,146.5,86.7,147.5,85.5z"/>
	<path class="st224" d="M157.7,85.2c0,1.4,0,2.7,0,4.1C156.7,88,156.6,86.6,157.7,85.2z"/>
	<path class="st191" d="M73.6,277.2c-0.3,1.1,0.7,2.5-0.7,3.4C73.2,279.4,72.2,278,73.6,277.2z"/>
	<path class="st225" d="M107.6,208.7c0,1.3,0,2.5,0,3.8C106.6,211.3,106.6,210,107.6,208.7z"/>
	<path class="st226" d="M465.9,252.6c-0.1,1.2,0.4,2.5-0.8,3.4C465.6,254.9,464.5,253.4,465.9,252.6z"/>
	<path class="st227" d="M495.2,264.1c-0.4-0.2-0.7-0.4-1.1-0.7c0.1-1,0.6-1.5,1.6-1.6c0.2,0.3,0.4,0.6,0.6,0.9
		C496,263.1,495.6,263.6,495.2,264.1z"/>
	<path class="st228" d="M238.9,159.5c0,1.3,0,2.5,0,3.8C238,162,238,160.7,238.9,159.5z"/>
	<path class="st229" d="M127.2,84c0,1.2,0,2.5,0,3.7C126.2,86.5,126.2,85.3,127.2,84z"/>
	<path class="st129" d="M153.3,82.7c0-1.2,0.1-2.3,0.1-3.5c0.2-0.1,0.5-0.1,0.7,0c0,1.2,0,2.3,0,3.5
		C153.8,82.7,153.6,82.7,153.3,82.7z"/>
	<path class="st115" d="M405.7,252.5c0,1.2,0,2.3,0,3.5c-0.3,0-0.5,0-0.8,0c-0.4-1.2-0.6-2.4,0.1-3.5
		C405.3,252.4,405.5,252.4,405.7,252.5z"/>
	<path class="st226" d="M204.2,29.2c-0.1,1.2,0.4,2.5-0.8,3.4C203.9,31.6,202.7,30.1,204.2,29.2z"/>
	<path class="st191" d="M22.9,4.5c-0.3,1.1,0.7,2.5-0.7,3.4C22.5,6.8,21.5,5.4,22.9,4.5z"/>
	<path class="st142" d="M103.3,53.8c-0.3,1.1,0.6,2.5-0.7,3.4C103,56.1,101.9,54.7,103.3,53.8z"/>
	<path class="st131" d="M72.9,4.5c-0.4,1.1,0.8,2.6-0.8,3.4C72.5,6.8,71.5,5.4,72.9,4.5z"/>
	<path class="st114" d="M405.1,252.4c0,1.2-0.1,2.3-0.1,3.5c0,0-0.3,0-0.3,0l-0.3-0.1C404.4,254.7,403.9,253.4,405.1,252.4z"/>
	<path class="st115" d="M154.1,4.5c0,1.2,0,2.3,0,3.5c-0.3,0-0.5,0-0.8,0c-0.3-1.2-0.6-2.4,0.1-3.5C153.7,4.4,153.9,4.4,154.1,4.5z"
		/>
	<path class="st114" d="M153.5,4.5c0,1.2-0.1,2.3-0.1,3.5c0,0-0.3,0-0.3,0s-0.3-0.1-0.3-0.1C152.8,6.7,152.3,5.4,153.5,4.5z"/>
	<path class="st228" d="M238.9,258.8c0,1.3,0,2.5,0,3.8C238,261.3,238,260.1,238.9,258.8z"/>
	<path class="st230" d="M-113.1,190c-3.2,0.1-4.6-2-2.9-4.7c0.8-1.2,0.1-1.7-0.3-2.5c-0.8-1.4-0.6-2.6,0.7-3.5
		c1.5-1.1,3.1-1.2,4.7-0.3c1.4,0.8,1.4,2.2,0.8,3.5c-0.5,1-1,1.6-0.2,2.8C-108.7,187.9-110,190-113.1,190z"/>
	<path class="st231" d="M-116.1,214.4c0.5-1.2,1.2-1.1,1.7-1.1c1.4-0.2,2.9-0.8,2.9-2.2c-0.1-1.8-1.7-0.4-2.6-0.6
		c-1.6-0.4-2.7-1.2-2.9-2.8c-0.2-1.7,0.4-3.1,1.9-4c1.5-0.8,3.1-0.9,4.3,0.5c2.1,2.4,1.9,5.1,0.6,7.8
		C-111.4,214.2-113.3,215-116.1,214.4z"/>
	<path class="st7" d="M-110,129.9c-1.9,1.1-4.8,0.4-5.2,3.3c0.7,1,1.7,0.2,2.5,0.2c1.6,0.1,2.7,0.8,3.3,2.3c0.6,1.7,0,3-1.3,4.1
		c-1.2,1-2.6,1.2-4,0.5c-2.1-1.1-3-4.9-1.8-7.8C-115.4,129.9-113.3,128.9-110,129.9z"/>
	<path class="st232" d="M-110.5,238.7c-1.5,1.4-3.1,2-4.8,0.6c-2.5-2-1.9-4.8-1.6-7.4c0.2-1.8,1.5-3.1,3.3-3.4
		c1.7-0.3,3.1,0.5,3.7,2.2c0.4,1.4,0.5,2.8,0.8,4.2c-0.5,0.5-1.2,0.4-1.8,0.4c-0.7,0.2-1.6,0.5-1.7,1.1c0,0.8,1.1,0.5,1.7,0.9
		C-110.5,237.7-110.2,238.1-110.5,238.7z"/>
	<path class="st233" d="M-111.2,90.7c-0.7-2.7-2.3-3-4.2-2.8c-2.1,0.2-2.7-0.7-1.5-2.5c1.1-1.7,2.3-3.4,3.4-5.1
		c0.4-0.6,1-1.1,1.8-0.9c0.9,0.2,0.9,1,1,1.7c0.4,2-0.8,4.2,1.5,5.9C-108.5,87.4-111.4,88.5-111.2,90.7z"/>
	<path class="st7" d="M-116.2,7c1.3-1.1,2.6-2,4-1.5c1.5,0.6,0.7,2.3,0.8,3.6c0.3,2.5-1,5.3,2.3,7.2c-2.6,0.7-4.6,0.7-7.4,0
		c4.6-1.9,2.9-5.3,3-8.1C-113.4,6.2-115.3,8.1-116.2,7z"/>
	<path class="st232" d="M-115.8,31.3c1.6-1.9,3.7-2.2,5-0.2c2.8,4-1.5,5.8-3.3,8.3c1.3,1.3,3.3-0.4,4.7,1.5
		c-1.7,0.9-3.4,0.4-4.9,0.5c-0.8,0-1.8,0.3-2.2-0.7c-0.2-0.8,0.5-1.3,1-1.8c0.8-0.8,1.5-1.5,2.3-2.3c1.1-1.2,2.4-2.4,1.7-4.1
		C-112.5,30.5-114.3,31.5-115.8,31.3z"/>
	<path class="st232" d="M-116.4,279.4c2.1-2,4.2-2.3,5.6-0.3c2.8,4.1-1.5,5.8-3.3,8.4c1.3,1.1,3.3-0.2,4.5,1c-0.2,1-0.9,0.9-1.5,0.9
		c-1.8-0.2-4.4,1-5.3-0.8c-0.7-1.4,1.8-2.5,2.8-3.8c0.2-0.3,0.5-0.5,0.7-0.8c0.8-1,1.8-2.1,1.2-3.6
		C-112.5,278.3-114.5,279.8-116.4,279.4z"/>
	<path class="st7" d="M-124.8,259.2c0.9-1.4,3.6-0.8,3.1-3.1c-0.5-2.2-2.5-1.2-4.4-1.8c1.7-1.4,3.1-1.5,4.6-0.6
		c1.4,0.9,1.8,2.2,1,3.7c-0.3,0.6-0.8,1.3-0.2,1.9c1.1,1.2,1.7,2.4,0.4,3.7c-1.7,1.6-3.6,2-6.2,1.2c1.6-1.8,4.9,0.1,5.2-2.7
		C-121,259.6-123.4,259.9-124.8,259.2z"/>
	<path class="st7" d="M-126.5,288.9c2-1.7,5,0.2,5.3-2.7c0.1-1.8-2-1.7-3.5-2.2c0.8-1.6,3.8-1.1,3.1-3.5c-0.6-2-2.8-0.8-4.2-1.8
		c1.6-1.2,3.2-1.3,4.7-0.2c1.4,1,1.5,2.4,0.6,3.8c-0.3,0.6-0.5,1.1,0,1.6c1.1,1.2,1.7,2.4,0.4,3.8
		C-121.9,289.4-123.8,289.8-126.5,288.9z"/>
	<path class="st7" d="M-126.4,239.6c1.7-1.8,4.7,0.2,5.1-2.6c0.3-2.1-2.3-1.6-3.4-2.6c0.8-1.3,3.5-0.7,3-3c-0.5-2.2-2.7-1-4.2-1.8
		c1.5-1.4,3-1.4,4.5-0.4c1.4,0.9,1.6,2.3,0.8,3.8c-0.3,0.5-0.7,1.1-0.2,1.6c1.2,1.3,1.9,2.6,0.3,4C-122,240-123.9,240.5-126.4,239.6
		z"/>
	<path class="st233" d="M-115.9,55.3c1.5-1.3,2.9-1,4.3-0.2c1.5,0.9,1.8,2.2,1,3.7c-0.3,0.5-0.3,1.1-0.2,1.7
		c1.2,4.7-0.4,6.2-5.4,4.9c1.2-1.7,4.7,0.2,4.6-2.9c0-1.8-2.1-1.2-3.1-2.2c0.8-1.2,3.4-0.9,2.8-3.1
		C-112.3,55.1-114.6,56.5-115.9,55.3z"/>
	<path class="st234" d="M-116.6,254.9c1.2-0.9,2.5-2.1,3.9-1.4c1.3,0.7,0.7,2.4,0.7,3.6c0.1,5.3,0.1,5.3,2.3,6.7
		c-2.4,1.1-2.9,1.1-6.5,0.2c4.4-1.6,2.5-5.2,2.6-7.9C-113.5,253.9-115.6,256.3-116.6,254.9z"/>
	<path class="st230" d="M-116.6,154.1c1.9-0.7,3.9-0.3,5.8-0.3c1.1,0,1.6,0.7,1.1,1.7c-1.6,3.3-2.4,6.9-5.4,10.2
		c-0.3-2.9,1.3-4.5,2.1-6.3c1.8-3.8,1.8-3.8-2.2-4.2C-115.7,155.2-116.3,155.3-116.6,154.1z"/>
	<path class="st235" d="M-114.9,105.2c0,1.2-0.4,2.5,1.4,2.8c2.4,0.4,4.2,1.5,3.5,4.3c-0.5,2.1-2.8,3-6,2.5c0.4-1.5,1.8-0.8,2.7-1
		c1.2-0.4,1.9-1,1.9-2.3c0-1.1-0.7-1.9-1.8-1.9c-4.8-0.2-3.3-3.2-2.5-5.8C-115.2,104.2-114.8,104.6-114.9,105.2z"/>
	<path class="st233" d="M-125.7,63.9c0.7-0.8,1.4-1.6,2.1-2.4c1.1-1.2,2.7-2.3,1.9-4.3c-0.8-2.1-2.8-0.9-4.8-0.8
		c1.9-2.2,3.6-2.5,5.4-1.1c1.7,1.4,1.5,3.2,0.4,4.9c-1,1.6-2.4,3-3.6,4.4C-125,65-125.4,64.6-125.7,63.9z"/>
	<path class="st233" d="M-125.7,88.6c0.7-0.8,1.4-1.6,2.1-2.4c1.1-1.2,2.7-2.3,2-4.3c-0.8-2.2-2.8-0.8-4.6-1c1.8-2,3.5-2.3,5.2-0.9
		c1.7,1.4,1.5,3.2,0.4,4.9c-1,1.6-2.4,3-3.6,4.4C-125,89.6-125.4,89.2-125.7,88.6z"/>
	<path class="st233" d="M-125.7,113.2c0.7-0.8,1.4-1.6,2.1-2.4c1.1-1.2,2.7-2.3,2-4.3c-0.8-2.2-2.8-0.8-4.6-1c1.8-2,3.5-2.3,5.2-0.9
		c1.7,1.4,1.5,3.2,0.4,4.9c-1,1.6-2.4,3-3.6,4.4C-125,114.3-125.4,113.9-125.7,113.2z"/>
	<path class="st233" d="M-125.7,212.6c0.7-0.8,1.4-1.6,2.1-2.4c1.1-1.2,2.7-2.3,2-4.3c-0.8-2.2-2.8-0.8-4.6-1c1.8-2,3.5-2.3,5.2-0.9
		c1.7,1.4,1.5,3.2,0.4,4.9c-1,1.6-2.4,3-3.6,4.4C-125,213.6-125.4,213.2-125.7,212.6z"/>
	<path class="st233" d="M-125.7,187.9c0.7-0.8,1.4-1.6,2.1-2.4c1.1-1.2,2.7-2.3,2-4.3c-0.8-2.2-2.8-0.8-4.6-1c1.8-2,3.5-2.3,5.2-0.9
		c1.7,1.4,1.5,3.2,0.4,4.9c-1,1.6-2.4,3-3.6,4.4C-125,189-125.4,188.6-125.7,187.9z"/>
	<path class="st233" d="M-125.7,138.6c0.7-0.8,1.4-1.6,2.1-2.4c1.1-1.2,2.7-2.3,2-4.3c-0.8-2.2-2.8-0.8-4.6-1c1.8-2,3.5-2.3,5.2-0.9
		c1.7,1.4,1.5,3.2,0.4,4.9c-1,1.6-2.4,3-3.6,4.4C-125,139.7-125.4,139.3-125.7,138.6z"/>
	<path class="st233" d="M-125.7,39.3c0.7-0.8,1.4-1.6,2.1-2.4c1.1-1.2,2.7-2.3,2-4.3c-0.8-2.2-2.8-0.8-4.6-1c1.8-2,3.5-2.3,5.2-0.9
		c1.7,1.4,1.5,3.2,0.4,4.9c-1,1.6-2.4,3-3.6,4.4C-125,40.3-125.4,39.9-125.7,39.3z"/>
	<path class="st233" d="M-125.7,163.2c0.7-0.8,1.4-1.6,2.1-2.4c1.1-1.2,2.7-2.3,2-4.3c-0.8-2.2-2.8-0.8-4.6-1c1.8-2,3.5-2.3,5.2-0.9
		c1.7,1.4,1.5,3.2,0.4,4.9c-1,1.6-2.4,3-3.6,4.4C-125,164.3-125.4,163.9-125.7,163.2z"/>
	<path class="st236" d="M-125.1,14.4c0.7-0.8,1.4-1.6,2.1-2.4c1-1.2,2.1-2.5,1.3-4.2c-0.9-2-2.6-0.8-4.8-0.8
		c1.8-1.9,3.4-2.4,5.2-1.2c1.9,1.3,1.8,3.4,0.7,5.1c-1,1.6-2.4,2.9-3.7,4.4C-125,15.4-125.4,15.2-125.1,14.4z"/>
	<path class="st237" d="M-125.7,88.6c0.5,0.2,1,0.4,1.5,0.7c1.5,0.2,3.1-0.4,4.8,0.7c-2.2,1.3-4.3,0.9-6.2,0.5
		C-126.8,90.2-126.4,89.2-125.7,88.6z"/>
	<path class="st237" d="M-125.7,163.2c0.5,0.2,1,0.4,1.5,0.7c1.5,0.2,3.1-0.4,4.8,0.7c-2.2,1.3-4.3,0.9-6.2,0.5
		C-126.8,164.9-126.4,163.9-125.7,163.2z"/>
	<path class="st237" d="M-125.7,212.6c0.5,0.2,1,0.4,1.5,0.7c1.5,0,3,0,4.5,0c-1.8,2-4,1.6-5.9,1.2
		C-126.8,214.2-126.4,213.2-125.7,212.6z"/>
	<path class="st237" d="M-125.7,63.9c0.5,0.2,1,0.4,1.5,0.7c1.5,0.2,3.1-0.4,4.8,0.7c-2.2,1.3-4.3,0.9-6.2,0.5
		C-126.8,65.6-126.4,64.6-125.7,63.9z"/>
	<path class="st237" d="M-125.7,39.3c0.5,0.2,1,0.4,1.5,0.7c1.5,0,3,0,4.5,0c-1.8,2-4,1.6-5.9,1.2
		C-126.8,40.9-126.4,39.9-125.7,39.3z"/>
	<path class="st237" d="M-125.7,113.2c0.5,0.2,1,0.4,1.5,0.7c1.5,0,3,0,4.5,0c-1.8,2-4,1.6-5.9,1.2
		C-126.8,114.9-126.4,113.9-125.7,113.2z"/>
	<path class="st237" d="M-125.7,187.9c0.5,0.2,1,0.4,1.5,0.7c1.5,0.2,3.1-0.4,4.8,0.7c-2.2,1.3-4.3,0.9-6.2,0.5
		C-126.8,189.6-126.4,188.6-125.7,187.9z"/>
	<path class="st237" d="M-125.7,138.6c0.5,0.2,1,0.4,1.5,0.7c1.5,0.2,3.1-0.4,4.8,0.7c-2.2,1.3-4.3,0.9-6.2,0.5
		C-126.8,140.3-126.4,139.3-125.7,138.6z"/>
	<path class="st238" d="M-125.1,14.4c0.3,0.3,0.6,0.6,0.9,0.9c1.5,0.2,3.1-0.4,4.8,0.7c-2,1.3-4.1,1-5.8,0.6
		C-127.3,16.1-125.8,15.1-125.1,14.4z"/>
	<path class="st239" d="M-114.9,105.2c-0.3-0.5-0.5-0.9-0.8-1.4c1.6-0.1,3.1-0.4,5,0.5C-112.1,105.6-113.6,105-114.9,105.2z"/>
	<path class="st240" d="M-110.5,238.7c-0.2-0.3-0.5-0.5-0.7-0.8c-1.2-1.6-0.1-2.9,0.6-4.3c0.5,0.4,1,0.9,1.5,1.3
		C-109,236.4-109.5,237.7-110.5,238.7z"/>
	<path class="st241" d="M122.9,258.8c0,0.9-0.2,1.6-1.4,1.6c-1.1,0-1.9-0.3-1.8-1.5c0-1,0.7-1.4,1.6-1.4
		C122.3,257.4,123,257.7,122.9,258.8z"/>
	<path class="st242" d="M121.6,267c-0.9-0.3-2.4,0.3-2.2-1.2c0.1-1.3,1.4-1.1,2.3-1c0.8,0,1.9-0.2,1.9,1
		C123.7,267.3,122.3,266.7,121.6,267z"/>
	<path class="st243" d="M173.8,184.2c-0.3,1.2-1.2,1.5-2.3,1.6c-1.4-0.5-2.1-1.5-0.9-2.7C171.9,182.1,173.1,182.9,173.8,184.2z"/>
	<path class="st244" d="M172.3,192.3c-1.4-0.1-2.7,0.1-2.6-1.2c0.1-1.2,1.3-1.1,2.3-1c0.9,0,2.2-0.1,2.1,1.1
		C174.1,192.1,172.9,192.5,172.3,192.3z"/>
	<path class="st245" d="M513.4,257.4c1.1,0,1.9,0.4,1.9,1.6c0,1-0.7,1.4-1.6,1.5c-0.9,0-1.7-0.2-1.9-1.2
		C511.6,258.1,512.2,257.5,513.4,257.4z"/>
	<path class="st246" d="M513.6,267c-0.9-0.1-2.2,0.2-2.2-1.2c0-1.3,1.3-1.2,2.2-1.2c0.9,0,2.2-0.2,2.2,1.1
		C515.8,267.1,514.5,266.9,513.6,267z"/>
	<path class="st247" d="M72.3,13.2c-0.8,0.8-1.3,2.4-2.7,1.8c-1.2-0.5-1.2-2-0.9-3.2c0.4-1.8,1.6-2.6,3.4-2.1
		C72.9,10.8,72.6,12,72.3,13.2z"/>
	<path class="st117" d="M72.3,13.2c-0.1-1.2-0.1-2.4-0.2-3.6C73.5,10.8,73.1,12,72.3,13.2z"/>
	<path class="st248" d="M112.8,113c-1.1,0.4-1.7,2.5-3.2,1.2c-0.9-0.8-1-2.1-0.7-3.3c0.6-2.2,2.1-2.2,3.9-1.9
		C113.4,110.3,113.3,111.7,112.8,113z"/>
	<path class="st249" d="M112.8,113c0-1.4,0-2.7,0-4.1C113.9,110.3,113.9,111.7,112.8,113z"/>
	<path class="st248" d="M102.6,63c-1.1,0.4-1.7,2.5-3.2,1.2c-0.9-0.8-1-2.1-0.7-3.3c0.6-2.2,2.1-2.2,3.9-1.9
		C103.2,60.3,103.2,61.6,102.6,63z"/>
	<path class="st249" d="M102.6,63c0-1.4,0-2.7,0-4.1C103.8,60.3,103.7,61.6,102.6,63z"/>
	<path class="st250" d="M220.8,185.1c1.6-0.2,3-0.2,2.9,2c-0.1,2.3-1.7,1.3-2.9,1.4C220.3,187.3,220.3,186.2,220.8,185.1z"/>
	<path class="st251" d="M220.8,180c1.6-0.3,3,0,2.9,1.9c-0.1,1.8-1.6,1.7-2.9,1.5C220.3,182.3,220.3,181.1,220.8,180z"/>
	<path class="st110" d="M220.8,180c0,1.1,0,2.3,0,3.4C219.7,182.3,219.7,181.1,220.8,180z"/>
	<path class="st110" d="M220.8,185.1c0,1.1,0,2.3,0,3.4C219.7,187.3,219.7,186.2,220.8,185.1z"/>
	<path class="st252" d="M161.4,263.2c-1,0-1.7-0.3-1.4-1c0.3-1.1,1.4-1.1,2.4-1.1c0.6,0,1.5,0.2,1.1,0.9
		C163,262.7,161.9,262.9,161.4,263.2z"/>
	<path class="st252" d="M164.3,162.4c-1.8,0.9-2.6,2.1-4.1,1.3c-0.2-0.1-0.3-0.7-0.2-0.9C161,161.4,162.2,161.6,164.3,162.4z"/>
	<path class="st253" d="M162.8,63.2c-0.2,1-0.9,1.3-1.7,1.4c-0.8,0.1-1.6-0.2-1.5-1c0.1-0.8,1-1.2,1.9-1.1
		C162,62.5,162.7,62.3,162.8,63.2z"/>
	<path class="st252" d="M123.4,38.2c-1.3,1-2.1,1.9-3.5,1.6c-0.5-0.1-0.7-0.7-0.4-1.1C120.4,37.4,121.7,37.7,123.4,38.2z"/>
	<path class="st254" d="M260.7,159.2c1-0.7,2-1.7,3.2-0.7c1.1,1.1,1,2.6,0.5,4c-0.7,1.8-2.2,1.5-3.6,1.3
		C260,162.3,260.2,160.8,260.7,159.2z"/>
	<path class="st255" d="M260.7,159.2c0,1.5,0,3.1,0,4.6C259.5,162.3,259.8,160.8,260.7,159.2z"/>
	<path class="st256" d="M22.1,14.2c-0.9,0.7-1.9,1.8-3.1,0.6c-1-1-0.7-2.5-0.4-3.7c0.5-1.8,2-1.7,3.5-1.4
		C22.8,11.2,22.6,12.7,22.1,14.2z"/>
	<path class="st257" d="M22.1,14.2c0-1.5,0-3.1,0-4.6C23.4,11.2,23.1,12.7,22.1,14.2z"/>
	<path class="st258" d="M113.4,209.3c0.1,2.2-0.5,3.8-2.6,3.9c-1.6,0.1-1.7-1.4-1.7-2.6c0-1.8,0.6-3,2.7-3.1
		C113.3,207.4,113.5,208.3,113.4,209.3z"/>
	<path class="st259" d="M62.9,36c0,2.2-0.6,3.7-2.6,3.8c-1.5,0.1-1.8-1.4-1.8-2.6c0-1.7,0.6-3,2.6-3.2C62.8,33.9,63,35,62.9,36z"/>
	<path class="st256" d="M72.8,286.8c-0.9,0.7-1.9,1.8-3.1,0.6c-1-1-0.7-2.5-0.4-3.7c0.5-1.8,2-1.7,3.5-1.4
		C73.6,283.8,73.4,285.3,72.8,286.8z"/>
	<path class="st257" d="M72.8,286.8c0-1.5,0-3.1,0-4.6C74.1,283.8,73.9,285.3,72.8,286.8z"/>
	<path class="st259" d="M103.5,160.2c0.1,1.9-0.5,3.4-2.5,3.6c-1.6,0.2-1.9-1.3-1.9-2.5c0-1.8,0.6-3.2,2.8-3.3
		C103.6,158,103.5,159.1,103.5,160.2z"/>
	<path class="st260" d="M163.3,86.3c-1.4,0-2.5,0-3.7,0c-0.1-1.2,0.4-1.8,1.5-2.1C162.6,83.9,162.9,85,163.3,86.3z"/>
	<path class="st261" d="M143.2,87.1c0.2,1.6-0.1,3-2.1,2.8c-1.7-0.1-2.2-1.2-2.2-2.7c0-1.6,0.4-2.9,2.3-3
		C143.3,84.1,143.4,85.6,143.2,87.1z"/>
	<path class="st244" d="M393.2,259.8c-0.7-0.3-2.1,0.6-2.1-1.1c0-1.1,0.8-1.3,1.7-1.3c1,0,2,0.1,2.1,1.3
		C395.1,260.2,393.9,259.6,393.2,259.8z"/>
	<path class="st262" d="M300.1,259.6c1-1.9,2.1-2.7,3.7-2c0.6,0.2,1.2,1,0.8,1.4C303.4,260.4,301.8,259.6,300.1,259.6z"/>
	<path class="st263" d="M300.5,159.5c1.1-0.9,2.2-2.1,3.7-0.9c1.2,1,0.9,2.7,0.5,4c-0.7,2-2.4,1.4-3.9,1.3
		C299.8,162.5,300.1,161,300.5,159.5z"/>
	<path class="st202" d="M300.5,159.5c0.1,1.4,0.1,2.9,0.2,4.3C299.3,162.5,299.7,161,300.5,159.5z"/>
	<path class="st264" d="M224.5,261.6c-1.2,1.6-2.4,2.2-3.9,1.3c-0.2-0.1-0.3-0.7-0.2-0.9C221.5,260.6,222.8,261,224.5,261.6z"/>
	<path class="st264" d="M284.7,261.3c-1,1.8-2.2,2.3-3.7,1.8c-0.5-0.1-0.7-0.7-0.4-1.1C281.7,260.5,283,261.2,284.7,261.3z"/>
	<path class="st264" d="M224.6,161.9c-1.3,1.9-2.5,2.4-4,1.7c-0.2-0.1-0.4-0.7-0.3-0.9C221.4,161.1,222.8,161.9,224.6,161.9z"/>
	<path class="st264" d="M425.4,261.5c-1.1,1.6-2.3,2.2-3.8,1.6c-0.5-0.2-0.6-0.7-0.2-1.2C422.4,260.7,423.6,261,425.4,261.5z"/>
	<path class="st265" d="M133.6,13.5c-1.1,1.8-2.3,2.2-3.7,1.4c-0.2-0.1-0.4-0.7-0.3-0.9C130.6,12.6,132,13,133.6,13.5z"/>
	<path class="st264" d="M183.8,38.2c-0.9,1.6-2.1,2.1-3.6,1.6c-0.5-0.1-0.8-0.7-0.4-1.1C180.9,37.3,182.2,37.7,183.8,38.2z"/>
	<path class="st266" d="M240.8,158.8c1.1-0.9,2.6-1.3,3.4-0.1c0.8,1.1,0.6,2.8-0.3,4c-0.9,1.2-2.1,1.9-3.5,0.5
		C240.1,161.7,239.3,160.2,240.8,158.8z"/>
	<path class="st267" d="M240.8,158.8c-0.1,1.5-0.3,2.9-0.4,4.4C239.5,161.7,239,160.1,240.8,158.8z"/>
	<path class="st266" d="M240.8,258.2c1.1-0.9,2.6-1.3,3.4-0.1c0.8,1.1,0.6,2.8-0.3,4c-0.9,1.2-2.1,1.9-3.5,0.5
		C240.1,261.1,239.3,259.5,240.8,258.2z"/>
	<path class="st267" d="M240.8,258.2c-0.1,1.5-0.3,2.9-0.4,4.4C239.5,261,239,259.5,240.8,258.2z"/>
	<path class="st268" d="M292.5,267c-0.8-0.1-1.9,0.2-2-1c-0.1-1.4,1.1-1.3,2-1.3c0.9,0,2.2-0.2,2.2,1.1
		C294.8,267.2,293.4,266.9,292.5,267z"/>
	<path class="st269" d="M202.7,39.1c-1.1,0.9-2.2,1.2-3.3,0c-0.3-4.5,0.1-4.9,4.1-4.9c0.6,1.4,0.6,2.8,0,4.3
		C203.1,38.7,202.9,38.9,202.7,39.1z"/>
	<path class="st226" d="M203.4,38.5c0-1.4,0-2.8,0-4.3C204.5,35.6,204.5,37,203.4,38.5z"/>
	<path class="st269" d="M464.4,262.5c-1.1,0.9-2.2,1.2-3.3,0c-0.3-4.5,0.1-4.9,4.1-4.9c0.6,1.4,0.6,2.8,0,4.3
		C464.9,262,464.7,262.2,464.4,262.5z"/>
	<path class="st226" d="M465.1,261.8c0-1.4,0-2.8,0-4.3C466.3,258.9,466.3,260.4,465.1,261.8z"/>
	<path class="st270" d="M294.1,258.8c0.1,1-0.4,1.6-1.4,1.6c-1.1,0.1-2-0.3-2-1.5c0-1,0.7-1.5,1.7-1.5
		C293.3,257.4,294.1,257.6,294.1,258.8z"/>
	<path class="st129" d="M201.2,188.5c0-2.9,0-5.7,0-8.6C202.4,182.8,202.4,185.7,201.2,188.5z"/>
	<path class="st271" d="M472.4,257.4c0.7,0.1,1.4,0.2,2.1,0.2c0.2,0.6,0.5,1.3,0.7,1.9c-1.4,0.8-2.9,0.7-4.3,0
		C470.9,258.4,471.6,257.9,472.4,257.4z"/>
	<path class="st205" d="M471,259.6c1.4,0,2.9,0,4.3,0C473.9,260.8,472.4,260.7,471,259.6z"/>
	<path class="st271" d="M301.3,58.7c0.7,0.1,1.4,0.2,2.1,0.2c0.2,0.6,0.5,1.3,0.7,1.9c-1.4,0.8-2.9,0.7-4.3,0
		C299.7,59.8,300.4,59.2,301.3,58.7z"/>
	<path class="st205" d="M299.9,60.9c1.4,0,2.9,0,4.3,0C302.8,62.1,301.3,62.1,299.9,60.9z"/>
	<path class="st272" d="M451.5,263.1c-0.8-1.2-0.9-2.6-0.8-4c1-1.4,2.3-2.2,3.9-1.2c1.3,0.8,1.4,2.2,0.9,3.5
		C454.9,263.4,453.3,263.6,451.5,263.1z"/>
	<path class="st273" d="M148.3,88.3c0-0.6,0-1.2,0-1.8c1.4-0.8,2-3.1,4.3-2.2c1.2,1.5,1,3,0,4.6C150.8,91.4,149.7,89,148.3,88.3z"/>
	<path class="st274" d="M152.6,88.9c0-1.5,0-3,0-4.6c0.2-0.1,0.4-0.1,0.7-0.1c0.7,1.4,0.7,2.9,0,4.3
		C153.1,88.6,152.8,88.8,152.6,88.9z"/>
	<path class="st275" d="M153.3,88.5c0-1.4,0-2.9,0-4.3c0.3,0,0.5,0,0.8,0C153.9,85.7,154.6,87.3,153.3,88.5z"/>
	<path class="st276" d="M239.7,59.9c0.3-0.3,0.5-0.6,0.8-0.9c1.1,0,2.6-0.8,3.2,0.7c0.7,1.8,0.1,3.5-1.4,4.9c-0.9,0-2,0.4-2.7-0.6
		C239.1,62.6,239.2,61.2,239.7,59.9z"/>
	<path class="st277" d="M495.8,261.8c-0.5,0.5-1.1,1.1-1.6,1.6c-0.9-0.1-1.8-0.1-2.7-0.2c-1.1-1.4-0.7-2.9-0.2-4.4
		c0.8-1.3,2.1-1.7,3.3-1.1C496.3,258.5,495.4,260.4,495.8,261.8z"/>
	<path class="st278" d="M491.3,258.8c0.1,1.5,0.2,2.9,0.2,4.4c-0.3,0-0.6,0-0.9,0.1c0-1.4,0-2.9,0-4.3
		C490.8,258.9,491,258.9,491.3,258.8z"/>
	<path class="st279" d="M220.2,62.6c1.2-0.3,2.4-0.3,3.4,0.6c-0.9,1.8-2.5,1.7-3.9,1.1C218.9,63.9,219.9,63.1,220.2,62.6z"/>
	<path class="st280" d="M239.7,59.9c0,1.4,0,2.7,0,4.1C238.6,62.6,238.7,61.2,239.7,59.9z"/>
	<path class="st281" d="M148.4,11.1c1.4-0.6,2.4-2.3,4.2-1.5c1.1,1.5,0.9,2.9,0,4.4c-0.6,1.1-1.6,1.6-2.7,1.1
		C148.5,14.3,148.2,12.7,148.4,11.1z"/>
	<path class="st282" d="M154.1,9.5c0,1.4,0,2.9,0,4.3c-0.2,0-0.5,0-0.7,0c-0.5-1.4-0.4-2.8,0-4.3C153.5,9.5,153.8,9.5,154.1,9.5z"/>
	<path class="st283" d="M153.3,9.6c0,1.4,0,2.8,0,4.3c-0.2,0.1-0.4,0.1-0.6,0.2c0-1.5,0-2.9,0-4.4C152.9,9.5,153.1,9.5,153.3,9.6z"
		/>
	<path class="st281" d="M400,259.1c1.4-0.6,2.4-2.3,4.2-1.5c1.1,1.5,0.9,2.9,0,4.4c-0.6,1.1-1.6,1.6-2.7,1.1
		C400.1,262.3,399.9,260.7,400,259.1z"/>
	<path class="st282" d="M405.7,257.5c0,1.4,0,2.9,0,4.3c-0.2,0-0.5,0-0.7,0c-0.5-1.4-0.4-2.8,0-4.3
		C405.2,257.5,405.4,257.5,405.7,257.5z"/>
	<path class="st283" d="M404.9,257.5c0,1.4,0,2.8,0,4.3c-0.2,0.1-0.4,0.1-0.6,0.2c0-1.5,0-2.9,0-4.4
		C404.5,257.5,404.7,257.5,404.9,257.5z"/>
	<path class="st284" d="M-110.9,186.9c-0.1,1.3-1,1.6-2,1.7c-1.1,0-2.3,0-2.4-1.4c0-1.2,0.9-1.9,2.1-2
		C-112,185.1-111.3,185.9-110.9,186.9z"/>
	<path class="st285" d="M-111.3,181.5c-0.2,1-0.7,1.9-1.8,1.8c-1.2,0-2.1-0.8-2.1-2c0-1.3,1-1.4,2-1.4
		C-112.1,179.9-111.3,180.2-111.3,181.5z"/>
	<path class="st286" d="M-110.9,207.1c-0.1,1.5-1.1,1.8-2.2,1.8c-1.4,0-2.4-0.5-2.4-2c0-1.4,0.6-2.3,2.1-2.3
		C-111.7,204.6-111.3,205.8-110.9,207.1z"/>
	<path class="st287" d="M-110.7,137.1c-0.1,1.5-1,2.2-2.4,2.2c-1.7,0-2.4-1.1-2.4-2.6c0-1.6,1.3-1.8,2.5-1.8
		C-111.5,135-110.7,135.7-110.7,137.1z"/>
	<path class="st287" d="M-110.7,233.6c0.2,1.5,0.1,2.9-0.6,4.3c-1.3,0.7-2.8,1.4-3.7-0.4c-0.8-1.8,1.1-2.1,2.1-2.7
		C-112.2,234.3-111.4,234-110.7,233.6z"/>
	<path class="st287" d="M-115.3,235.1c-0.5-2.6-0.5-4.3,1.7-5c1-0.3,2.3,0.3,2.3,1.2C-111.3,233.7-113.8,233.4-115.3,235.1z"/>
	<path class="st288" d="M-112.6,82c0.5,1.5,1.2,3-0.3,4.2c-0.6,0.4-1.8,0.4-2-0.1C-115.6,84.1-113.7,83.2-112.6,82z"/>
</g>
</svg>
